<svg xmlns="http://www.w3.org/2000/svg" xmlns:xlink="http://www.w3.org/1999/xlink" style="width: 0; height: 0; visibility: hidden; position: absolute;" aria-hidden="true"><symbol  viewBox='0 0 240 240' id='dwebicon-check'>
    <defs><style>.cls-1,.cls-2{fill:none;stroke:#000;}.cls-2{stroke-linecap:round;stroke-linejoin:round;}</style></defs><title>check</title><g id="Page-1"><g id="check"><g id="Group"><g id="check-2" data-name="check"><path id="Fill-1" class="cls-1" d="M11.21,4.18,6,7.21A1.76,1.76,0,0,0,5.2,8.59v6.06A1.78,1.78,0,0,0,6,16L8.3,17.37l2.91,1.68a1.7,1.7,0,0,0,1.58,0L18,16a1.78,1.78,0,0,0,.79-1.38V8.59A1.76,1.76,0,0,0,18,7.21l-5.22-3a1.74,1.74,0,0,0-1.58,0Z" transform="translate(-4.7 -3.49)"></path><path id="Stroke-640" class="cls-2" d="M8.4,11.6A3.6,3.6,0,1,1,12,15.2,3.6,3.6,0,0,1,8.4,11.6Z" transform="translate(-4.7 -3.49)"></path><polyline id="Stroke-642" class="cls-2" points="5.3 8.28 6.36 9.32 8.84 6.9"></polyline></g></g></g></g>
  </symbol><symbol  viewBox='0 0 240 240' id='dwebicon-clipboard'>
    <defs><style>.cls-1{fill:#fff;}</style></defs><title>clipboard</title><path d="M13.07,7.48a.54.54,0,0,0,.53-.57.54.54,0,0,0-.53-.57h-4a.58.58,0,0,0-.57.57.57.57,0,0,0,.57.57Z" transform="translate(-5.2 -4.07)"></path><path d="M18.15,12.24l-1.21-.7V5.35a1.28,1.28,0,0,0-1.28-1.28H6.49A1.28,1.28,0,0,0,5.2,5.35V16.16a1.28,1.28,0,0,0,1.29,1.28H10a.45.45,0,0,0,.13.11l3.74,2.16a.53.53,0,0,0,.57,0l3.73-2.16a.56.56,0,0,0,.29-.49V12.73A.56.56,0,0,0,18.15,12.24ZM6.34,16.16V5.35a.15.15,0,0,1,.15-.15h9.17a.17.17,0,0,1,.15.15v5.53l-1.39-.8a.58.58,0,0,0-.57,0l-3.74,2.16a.58.58,0,0,0-.28.49V16.3H6.49A.15.15,0,0,1,6.34,16.16Z" transform="translate(-5.2 -4.07)"></path><path class="cls-1" d="M17.09,14.8a3,3,0,0,1-2.95,3H12.69a.85.85,0,0,1-.9-.93V12.72a.91.91,0,0,1,.9-.93V16c0,.88.14.93.91.93h.54a2.09,2.09,0,0,0,0-4.17h-.77a.89.89,0,0,1,.77-.93A3,3,0,0,1,17.09,14.8Z" transform="translate(-5.2 -4.07)"></path>
  </symbol><symbol  viewBox='0 0 240 240' id='dwebicon-cross'>
    <title>cross</title><path d="M16.53,5.21,5.21,16.53a1.6,1.6,0,0,0,0,2.27,1.62,1.62,0,0,0,2.27,0L18.8,7.48a1.62,1.62,0,0,0,0-2.27A1.6,1.6,0,0,0,16.53,5.21Z" transform="translate(-4.73 -4.74)"></path><path d="M18.79,16.53,7.47,5.21a1.6,1.6,0,0,0-2.27,0,1.62,1.62,0,0,0,0,2.27L16.52,18.8a1.62,1.62,0,0,0,2.27,0A1.6,1.6,0,0,0,18.79,16.53Z" transform="translate(-4.73 -4.74)"></path>
  </symbol><symbol  viewBox='0 0 240 240' id='dwebicon-delete'>
    <defs><style>.cls-1{fill:#121212;}</style></defs><title>delete</title><path class="cls-1" d="M17.75,15.61a2.75,2.75,0,0,1-.92.77l0,0-.22.09-.07,0-.21.06-.08,0-.21,0h-.09l-.3,0a2.64,2.64,0,1,1,0-5.28l.32,0H16l.22.05.1,0,.24.08,0,0,.27.12,0,0,.25.16,0,0,.24.2a2,2,0,0,1,.41.5,2.58,2.58,0,0,1-.12,3Zm-3.41,1.75h0Zm4.31-5.23a3.67,3.67,0,0,0-.57-.68,2.42,2.42,0,0,0-.31-.25l-.05,0a2.36,2.36,0,0,0-.32-.2l0,0a3.52,3.52,0,0,0-.39-.18l0,0-.34-.11-.12,0c-.1,0,.09-.17-1.32-.36H10.51v-.5c0-.88-.11-1.63-.79-1.63h0L5.45,7.87c0-.43.13-.54.52-.54H6l4.43,0h0a1.4,1.4,0,0,1,1.19,1.37v.43h3.26c.79,0,1.26.55,1.48,1.38l.1,0a.24.24,0,0,1,.12,0,1.93,1.93,0,0,1,.34.11l.06,0a2.49,2.49,0,0,1,.33.16V8.74c0-1.46.06-2.64-1.31-2.64H6c-1,0-1.19.62-1.23,1.51H4.63C3.93,7.61,4,8.28,4,9v5.79c0,1.54.49,2.78,1.94,2.78h9.41a4,4,0,0,1-.8-.15,4.17,4.17,0,0,0,1.06.15,2.69,2.69,0,0,0,.4,0h.12l.28-.06.12,0,.27-.08.11,0a1.94,1.94,0,0,0,.3-.13l.05,0a3.8,3.8,0,0,0,1.23-1,3.46,3.46,0,0,0,.16-4Z" transform="translate(-3.99 -6.1)"></path><path class="cls-1" d="M17,13.69H14.3a.44.44,0,1,0,0,.87H17a.44.44,0,1,0,0-.87" transform="translate(-3.99 -6.1)"></path>
  </symbol><symbol  viewBox='0 0 240 240' id='dwebicon-download'>
    <defs><style>.cls-1,.cls-2,.cls-3,.cls-4{fill:none;stroke-linecap:round;stroke-linejoin:round;}.cls-1,.cls-2{stroke:#303c42;}.cls-1{stroke-width:0.5px;}.cls-2{stroke-width:0.4px;}.cls-3,.cls-4{stroke:#000;}.cls-4{stroke-width:0.7px;}</style></defs><title>download</title><path class="cls-1" d="M7.1,17.5V19M8.41,17.5V19M9.72,17.5V19" transform="translate(-0.95 -2.52)"></path><path class="cls-2" d="M18.36,18.38A.38.38,0,1,1,18,18,.37.37,0,0,1,18.36,18.38Zm-2.62,0a.38.38,0,1,1-.38-.36A.37.37,0,0,1,15.74,18.38Z" transform="translate(-0.95 -2.52)"></path><path class="cls-3" d="M20.37,16.74a3.68,3.68,0,0,0,3-3.56,3.68,3.68,0,0,0-3.06-3.56A7.07,7.07,0,0,0,13.15,3,7.21,7.21,0,0,0,6.44,7.38H6.31A5.08,5.08,0,0,1,9,8.11M6.39,7a4.83,4.83,0,0,0-4.94,4.71,4.73,4.73,0,0,0,3,4.36" transform="translate(-0.95 -2.52)"></path><path class="cls-3" d="M19.29,20.53H5.61a1.11,1.11,0,0,1-1.14-1.08V17.27a1.12,1.12,0,0,1,1.14-1.09H19.29a1.12,1.12,0,0,1,1.14,1.09v2.18A1.11,1.11,0,0,1,19.29,20.53ZM19.44,9.6a3.67,3.67,0,0,1,.75.07Z" transform="translate(-0.95 -2.52)"></path><path class="cls-4" d="M4.87,17l3.88-4.3a1.55,1.55,0,0,1,1.15-.5h5.45a1.55,1.55,0,0,1,1.15.5L20.38,17" transform="translate(-0.95 -2.52)"></path><path d="M17.07,7.84a3.59,3.59,0,0,1-3.5,3.66H11.84a1,1,0,0,1-1.07-1.12V5.31a1.1,1.1,0,0,1,1.07-1.13V9.25c0,1.06.17,1.13,1.08,1.13h.65A2.49,2.49,0,0,0,16,7.84a2.48,2.48,0,0,0-2.43-2.53h-.93a1.08,1.08,0,0,1,.93-1.13A3.59,3.59,0,0,1,17.07,7.84Z" transform="translate(-0.95 -2.52)"></path>
  </symbol><symbol  viewBox='0 0 240 240' id='dwebicon-dweb-download'>
    <defs><style>.cls-1{fill:none;stroke:#000;stroke-width:1.5px;}.cls-2{fill:#121212;}</style></defs><title>dweb-download</title><path class="cls-1" d="M11.18,4.19,5.76,7.33a1.86,1.86,0,0,0-.82,1.44v6.28a1.82,1.82,0,0,0,.82,1.43l2.4,1.39,3,1.76a1.82,1.82,0,0,0,1.64,0l5.42-3.15a1.82,1.82,0,0,0,.82-1.43V8.77a1.86,1.86,0,0,0-.82-1.44L12.82,4.19a1.78,1.78,0,0,0-1.64,0Z" transform="translate(-4.19 -3.24)"></path><path class="cls-2" d="M11.16,8.25v4.84H9.57a.6.6,0,0,0,0,.7l2.14,2.77a.31.31,0,0,0,.53,0l2.14-2.77a.6.6,0,0,0,0-.7h-1.5V8.25a.45.45,0,0,0-.38-.49h-1a.45.45,0,0,0-.38.49" transform="translate(-4.19 -3.24)"></path>
  </symbol><symbol  viewBox='0 0 240 240' id='dwebicon-dweb-edit'>
    <defs><style>.cls-1{fill:none;stroke:#000;stroke-width:0.5px;}.cls-2{fill:#121212;}</style></defs><title>dweb-edit</title><path d="M15.2,4.07l-2,1.13a.66.66,0,0,0-.3.52V8a.65.65,0,0,0,.3.52l.86.5,1.1.64a.68.68,0,0,0,.59,0l2-1.14A.66.66,0,0,0,18.05,8V5.72a.68.68,0,0,0-.29-.52l-2-1.13a.58.58,0,0,0-.59,0Z" transform="translate(-5.52 -3.99)"></path><path class="cls-1" d="M10.91,13.33,9.81,14a.37.37,0,0,0-.17.29v1.27a.37.37,0,0,0,.17.29l.49.28.61.36a.38.38,0,0,0,.33,0l1.1-.64a.37.37,0,0,0,.17-.29V14.26a.37.37,0,0,0-.17-.29l-1.1-.64a.38.38,0,0,0-.16,0A.39.39,0,0,0,10.91,13.33Z" transform="translate(-5.52 -3.99)"></path><path class="cls-1" d="M14.87,17.62a.35.35,0,0,1-.34.36H7.7a.35.35,0,0,1-.33-.36V7.54a.35.35,0,0,1,.33-.37h6.83a.35.35,0,0,1,.34.37ZM14.53,5.43H7.7A2,2,0,0,0,5.77,7.54V17.62A2,2,0,0,0,7.7,19.73h6.83a2,2,0,0,0,1.93-2.11V7.54A2,2,0,0,0,14.53,5.43Z" transform="translate(-5.52 -3.99)"></path><polygon class="cls-2" points="2.4 6.15 8.13 6.15 8.13 5.44 2.4 5.44 2.4 6.15"></polygon><polygon class="cls-2" points="2.4 4.92 7.56 4.92 7.56 4.29 2.4 4.29 2.4 4.92"></polygon><polygon class="cls-2" points="2.4 7.3 8.85 7.3 8.85 6.65 2.4 6.65 2.4 7.3"></polygon>
  </symbol><symbol  viewBox='0 0 240 240' id='dwebicon-dweb-exit'>
    <defs><style>.cls-1{fill:none;stroke:#000;stroke-width:1.5px;}.cls-2,.cls-3{isolation:isolate;}.cls-3{font-size:13.5px;font-family:FredokaOne-Regular, Fredoka One;}</style></defs><title>dweb-exit</title><path class="cls-1" d="M11.22,5.07,6.11,8a1.72,1.72,0,0,0-.78,1.35v5.94a1.74,1.74,0,0,0,.78,1.35L8.37,18l2.85,1.66a1.78,1.78,0,0,0,1.56,0l5.11-3a1.74,1.74,0,0,0,.78-1.35V9.39A1.72,1.72,0,0,0,17.89,8l-5.11-3A1.72,1.72,0,0,0,12,4.88,1.8,1.8,0,0,0,11.22,5.07Z" transform="translate(-4.58 -4.13)"></path><g class="cls-2"><text class="cls-3" transform="translate(3.18 12.07) scale(1.11 1)">x</text></g>
  </symbol><symbol  viewBox='0 0 240 240' id='dwebicon-dweb-import'>
    <defs><style>.cls-1{fill:none;stroke:#000;stroke-width:1.5px;}.cls-2{fill:#121212;}</style></defs><title>dweb-import</title><path class="cls-1" d="M11.18,4.19,5.76,7.33a1.86,1.86,0,0,0-.82,1.44v6.28a1.82,1.82,0,0,0,.82,1.43l2.4,1.39,3,1.76a1.82,1.82,0,0,0,1.64,0l5.42-3.15a1.82,1.82,0,0,0,.82-1.43V8.77a1.86,1.86,0,0,0-.82-1.44L12.82,4.19a1.78,1.78,0,0,0-1.64,0Z" transform="translate(-4.19 -3.24)"></path><path class="cls-2" d="M7.64,12.63h5.3v1.79a.66.66,0,0,0,.76,0l3-2.4a.36.36,0,0,0,0-.6L13.7,9a.63.63,0,0,0-.76,0V10.7H7.64a.49.49,0,0,0-.54.43v1.08a.49.49,0,0,0,.54.42" transform="translate(-4.19 -3.24)"></path>
  </symbol><symbol  viewBox='0 0 240 240' id='dwebicon-dweb-pause'>
    <defs><style>.cls-1{fill:none;stroke:#000;stroke-width:1.5px;}.cls-2{fill:#121212;}</style></defs><title>dweb-pause</title><path class="cls-1" d="M11.18,4.19,5.76,7.33a1.86,1.86,0,0,0-.82,1.44v6.28a1.82,1.82,0,0,0,.82,1.43l2.4,1.39,3,1.76a1.82,1.82,0,0,0,1.64,0l5.42-3.15a1.82,1.82,0,0,0,.82-1.43V8.77a1.86,1.86,0,0,0-.82-1.44L12.82,4.19a1.78,1.78,0,0,0-1.64,0Z" transform="translate(-4.19 -3.24)"></path><path class="cls-2" d="M8.23,14.5V9.27A1.29,1.29,0,0,1,9.65,8.16a1.29,1.29,0,0,1,1.41,1.11V14.5a1.3,1.3,0,0,1-1.41,1.12A1.3,1.3,0,0,1,8.23,14.5Zm4.71,0V9.27a1.29,1.29,0,0,1,1.41-1.11,1.28,1.28,0,0,1,1.4,1.11V14.5a1.29,1.29,0,0,1-1.4,1.12A1.3,1.3,0,0,1,12.94,14.5Z" transform="translate(-4.19 -3.24)"></path>
  </symbol><symbol  viewBox='0 0 240 240' id='dwebicon-dweb-resume'>
    <defs><style>.cls-1{fill:none;stroke:#000;}</style></defs><title>dweb-resume</title><path d="M9.69,5.6a.34.34,0,0,1,0,.68H8.58a1.93,1.93,0,0,0-1.82,2V10l.41-.46a.3.3,0,0,1,.44,0,.38.38,0,0,1,0,.49l-.94,1a.29.29,0,0,1-.44,0l-.94-1a.38.38,0,0,1,0-.49.3.3,0,0,1,.44,0l.41.46V8.29A2.57,2.57,0,0,1,8.57,5.6Zm5.73,12.11a1.92,1.92,0,0,0,1.82-2V14l-.41.45a.28.28,0,0,1-.44,0,.36.36,0,0,1,0-.48l.94-1a.3.3,0,0,1,.44,0l.94,1a.37.37,0,0,1,0,.48.28.28,0,0,1-.44,0L17.86,14v1.74a2.58,2.58,0,0,1-2.44,2.69H14.31a.33.33,0,0,1-.31-.34.33.33,0,0,1,.31-.35Z" transform="translate(-4.7 -3.49)"></path><path class="cls-1" d="M14.76,4.09,12,5.68a.94.94,0,0,0-.42.73V9.59a.93.93,0,0,0,.42.72l1.21.7,1.53.89a.93.93,0,0,0,.83,0l2.74-1.59a.92.92,0,0,0,.41-.72V6.41a.93.93,0,0,0-.41-.73L15.59,4.09a1.13,1.13,0,0,0-.42-.1A1,1,0,0,0,14.76,4.09Z" transform="translate(-4.7 -3.49)"></path><path d="M17.34,7.86a2.23,2.23,0,0,1-2.21,2.26H14a.64.64,0,0,1-.68-.69V6.29A.69.69,0,0,1,14,5.6V8.73c0,.65.11.7.68.7h.41a1.57,1.57,0,0,0,0-3.14h-.58a.66.66,0,0,1,.58-.69A2.24,2.24,0,0,1,17.34,7.86Zm-6.4,8a2.24,2.24,0,0,1-2.21,2.27H7.64a.64.64,0,0,1-.68-.7V14.3a.69.69,0,0,1,.68-.7v3.13c0,.66.1.7.68.7h.41a1.57,1.57,0,0,0,0-3.13H8.14a.67.67,0,0,1,.59-.7A2.25,2.25,0,0,1,10.94,15.86Z" transform="translate(-4.7 -3.49)"></path><path class="cls-1" d="M8.35,12.1,5.61,13.69a.92.92,0,0,0-.41.72v3.18a.93.93,0,0,0,.41.73l1.22.7,1.52.89a.93.93,0,0,0,.83,0l2.74-1.59a.94.94,0,0,0,.42-.73V14.41a.93.93,0,0,0-.42-.72L9.18,12.1a.78.78,0,0,0-.41-.1A.84.84,0,0,0,8.35,12.1Z" transform="translate(-4.7 -3.49)"></path>
  </symbol><symbol  viewBox='0 0 240 240' id='dwebicon-dweb-upload'>
    <defs><style>.cls-1{fill:none;stroke:#000;stroke-width:1.5px;}.cls-2{fill:#121212;}</style></defs><title>dweb-upload</title><path class="cls-1" d="M11.18,4.19,5.76,7.33a1.86,1.86,0,0,0-.82,1.44v6.28a1.82,1.82,0,0,0,.82,1.43l2.4,1.39,3,1.76a1.82,1.82,0,0,0,1.64,0l5.42-3.15a1.82,1.82,0,0,0,.82-1.43V8.77a1.86,1.86,0,0,0-.82-1.44L12.82,4.19a1.78,1.78,0,0,0-1.64,0Z" transform="translate(-4.19 -3.24)"></path><path class="cls-2" d="M13,15.68V10.61h1.67a.65.65,0,0,0,0-.73L12.37,7a.34.34,0,0,0-.56,0L9.57,9.88a.65.65,0,0,0,0,.73h1.58v5.07c0,.28.18.52.39.52h1a.48.48,0,0,0,.4-.52" transform="translate(-4.19 -3.24)"></path>
  </symbol><symbol  viewBox='0 0 240 240' id='dwebicon-edit'>
    <title>edit</title><path d="M16.85,18.62H6.25V5.2h6V4.14h-6A1.06,1.06,0,0,0,5.19,5.2V18.62a1.07,1.07,0,0,0,1.06,1.06h10.6a1.07,1.07,0,0,0,1.06-1.06V11.91H16.85Z" transform="translate(-5.19 -4.14)"></path><path d="M18.65,5.46l-.74-.75a1.07,1.07,0,0,0-1.5,0s-5.89,5.88-6,6.24L10.17,12a1,1,0,0,0,.28,1,1,1,0,0,0,1,.28L12.51,13c.36-.1,6.14-6.07,6.14-6.07a1.05,1.05,0,0,0,0-1.5Zm-5.72,5.72-.72-.73,0,0,5-5,.75.75Z" transform="translate(-5.19 -4.14)"></path><path d="M11.5,15.13A2.64,2.64,0,0,1,8.9,17.8H7.62a.76.76,0,0,1-.8-.82V13.29a.81.81,0,0,1,.8-.82v3.69c0,.77.13.82.8.82H8.9a1.85,1.85,0,0,0,0-3.69H8.21a.79.79,0,0,1,.69-.82A2.64,2.64,0,0,1,11.5,15.13Z" transform="translate(-5.19 -4.14)"></path>
  </symbol><symbol  viewBox='0 0 240 240' id='dwebicon-favorite'>
    <defs><style>.cls-1{fill:none;stroke:#000;stroke-width:1.5px;}</style></defs><title>favorite</title><path class="cls-1" d="M11.18,4.19,5.76,7.33a1.86,1.86,0,0,0-.82,1.44v6.28a1.82,1.82,0,0,0,.82,1.43l2.4,1.39,3,1.76a1.82,1.82,0,0,0,1.64,0l5.42-3.15a1.82,1.82,0,0,0,.82-1.43V8.77a1.86,1.86,0,0,0-.82-1.44L12.82,4.19a1.78,1.78,0,0,0-1.64,0Z" transform="translate(-4.19 -3.24)"></path><path d="M12.05,7.28a4.61,4.61,0,1,0,4.6,4.6A4.6,4.6,0,0,0,12.05,7.28Zm0,8.58a4,4,0,1,1,2.81-1.16A4,4,0,0,1,12.05,15.86Z" transform="translate(-4.19 -3.24)"></path><path d="M13.76,11.16l-1-.12-.45-.88A.33.33,0,0,0,12,10a.31.31,0,0,0-.28.16l-.44.89-1,.1a.32.32,0,0,0-.19.54l.74.75-.15,1a.3.3,0,0,0,.13.3.3.3,0,0,0,.33,0l.88-.48.89.45a.31.31,0,0,0,.45-.34l-.18-1,.71-.72a.33.33,0,0,0,.07-.33.3.3,0,0,0-.26-.2Zm-1.09.92a.32.32,0,0,0-.08.28l.1.53-.48-.25a.37.37,0,0,0-.29,0l-.47.26.08-.53a.34.34,0,0,0-.08-.27l-.4-.4.51,0a.31.31,0,0,0,.25-.18L12,11l.24.47a.3.3,0,0,0,.24.17l.53.07Z" transform="translate(-4.19 -3.24)"></path>
  </symbol><symbol  viewBox='0 0 240 240' id='dwebicon-file'>
    <defs><style>.cls-1{fill:none;stroke:#000;stroke-width:0.5px;}.cls-2{fill:#121212;}</style></defs><title>file</title><path class="cls-1" d="M16.14,17.36a.37.37,0,0,1-.35.38h-7a.36.36,0,0,1-.34-.38V6.84a.36.36,0,0,1,.34-.38h7a.37.37,0,0,1,.35.38ZM15.79,4.64h-7a2.1,2.1,0,0,0-2,2.2V17.36a2.1,2.1,0,0,0,2,2.2h7a2.11,2.11,0,0,0,2-2.2V6.84A2.11,2.11,0,0,0,15.79,4.64Z" transform="translate(-6.53 -4.39)"></path><polygon class="cls-2" points="2.46 5.17 8.36 5.17 8.36 4.43 2.46 4.43 2.46 5.17"></polygon><polygon class="cls-2" points="2.46 3.88 7.77 3.88 7.77 3.23 2.46 3.23 2.46 3.88"></polygon><polygon class="cls-2" points="2.46 6.37 9.1 6.37 9.1 5.69 2.46 5.69 2.46 6.37"></polygon><path d="M14.74,14.32a2.49,2.49,0,0,1-2.46,2.51H11.07a.71.71,0,0,1-.75-.77V12.58a.77.77,0,0,1,.75-.78v3.48c0,.73.12.78.76.78h.45a1.75,1.75,0,0,0,0-3.49h-.65a.75.75,0,0,1,.65-.78A2.5,2.5,0,0,1,14.74,14.32Z" transform="translate(-6.53 -4.39)"></path>
  </symbol><symbol  viewBox='0 0 240 240' id='dwebicon-folder'>
    <defs><style>.cls-1{fill:#121212;}.cls-2{stroke:#000;stroke-width:0.4px;}</style></defs><title>folder</title><path class="cls-1" d="M18.47,16.21a3,3,0,0,1-1,.87l0,0-.23.11-.09,0a1.05,1.05,0,0,1-.21.06l-.09,0-.22.05h-.09l-.32,0a2.93,2.93,0,0,1-2.83-3,2.93,2.93,0,0,1,2.83-3l.34,0,.09,0,.24.05.1,0,.25.1h.05a1.77,1.77,0,0,1,.28.15l0,0,.27.18,0,0a2.61,2.61,0,0,1,.25.23,2.71,2.71,0,0,1,.44.57,3.09,3.09,0,0,1,.45,1.6A3.13,3.13,0,0,1,18.47,16.21Zm-3.6,2h0Zm4.54-5.94a4.33,4.33,0,0,0-.6-.77l-.32-.29-.06,0a2.85,2.85,0,0,0-.33-.23l0,0-.41-.2-.06,0a2.06,2.06,0,0,0-.35-.12l-.13,0c-.1,0,.09-.19-1.39-.4H10.84V9.52c0-1-.11-1.84-.83-1.84h0L5.52,7.42c0-.49.14-.62.55-.62h0l4.65,0h0A1.53,1.53,0,0,1,12,8.41v.48h3.43c.84,0,1.33.63,1.57,1.57l.1,0,.13,0,.35.13.06,0a3.84,3.84,0,0,1,.35.18V8.4c0-1.65.07-3-1.38-3H6.11c-1.05,0-1.26.7-1.3,1.71H4.66c-.74,0-.66.76-.66,1.6V15.3c0,1.74.52,3.15,2,3.15h9.9a3.47,3.47,0,0,1-.85-.17,3.9,3.9,0,0,0,1.12.17,3.11,3.11,0,0,0,.43,0l.12,0c.1,0,.2,0,.3-.06l.12,0,.29-.09.11-.05L17.9,18,18,18a4,4,0,0,0,1.29-1.16,4.19,4.19,0,0,0,.17-4.58Z" transform="translate(-3.99 -5.41)"></path><path class="cls-2" d="M16.12,12.42l-1.29.75a.46.46,0,0,0-.19.34V15a.46.46,0,0,0,.19.34l.57.33.72.42a.44.44,0,0,0,.39,0l1.29-.75A.44.44,0,0,0,18,15v-1.5a.44.44,0,0,0-.2-.34l-1.29-.75a.38.38,0,0,0-.19,0A.45.45,0,0,0,16.12,12.42Z" transform="translate(-3.99 -5.41)"></path>
  </symbol><symbol  viewBox='0 0 240 240' id='dwebicon-gear'>
    <title>gear</title><path d="M12,9.09A2.91,2.91,0,1,0,14.91,12,2.91,2.91,0,0,0,12,9.09Zm0,4.73A1.82,1.82,0,1,1,13.82,12,1.83,1.83,0,0,1,12,13.82Z" transform="translate(-3.99 -3.99)"></path><path d="M18.91,9.82H17.78l-.15-.37.79-.79a1.09,1.09,0,0,0,0-1.55L16.88,5.57a1.08,1.08,0,0,0-1.54,0l-.8.8a3.92,3.92,0,0,0-.36-.16V5.09A1.09,1.09,0,0,0,13.09,4H10.91a1.09,1.09,0,0,0-1.09,1.1V6.21a3.92,3.92,0,0,0-.36.16l-.8-.8a1.08,1.08,0,0,0-1.54,0L5.58,7.11a1.09,1.09,0,0,0,0,1.55l.79.79c-.06.12-.11.24-.16.37H5.09A1.09,1.09,0,0,0,4,10.91v2.18a1.09,1.09,0,0,0,1.1,1.09H6.21c0,.13.1.25.16.37l-.8.79a1.09,1.09,0,0,0,0,1.55l1.54,1.54a1.08,1.08,0,0,0,1.54,0l.8-.8.36.16v1.12A1.09,1.09,0,0,0,10.9,20h2.18a1.09,1.09,0,0,0,1.09-1.1V17.79l.37-.16.79.8a1.08,1.08,0,0,0,1.54,0l1.55-1.54a1.11,1.11,0,0,0,0-1.55l-.79-.79c.06-.12.11-.24.16-.37h1.12A1.09,1.09,0,0,0,20,13.09V10.91a1.11,1.11,0,0,0-.33-.78A1,1,0,0,0,18.91,9.82Zm0,3.27H17a4.9,4.9,0,0,1-.69,1.65l1.37,1.38-1.54,1.54-1.38-1.37a5.28,5.28,0,0,1-1.65.68v1.94H10.89V17a5.28,5.28,0,0,1-1.65-.68L7.87,17.66,6.33,16.12,7.7,14.74A5.1,5.1,0,0,1,7,13.09H5.09V10.91H7a4.9,4.9,0,0,1,.69-1.65L6.35,7.88,7.89,6.34,9.26,7.71A5.1,5.1,0,0,1,10.91,7V5.09h2.18V7a5.1,5.1,0,0,1,1.65.68l1.37-1.37,1.54,1.54L16.28,9.26A4.9,4.9,0,0,1,17,10.91h1.94Z" transform="translate(-3.99 -3.99)"></path>
  </symbol><symbol  viewBox='0 0 240 240' id='dwebicon-happy-face'>
    <defs><style>.cls-1{fill:none;}.cls-1,.cls-2{stroke:#000;}.cls-2{stroke-width:0.2px;}</style></defs><title>happy-face</title><path class="cls-1" d="M10.84,4.19,5.33,7.35a1.83,1.83,0,0,0-.84,1.43v6.31a1.85,1.85,0,0,0,.84,1.44l2.44,1.39,3.07,1.76a1.91,1.91,0,0,0,1.68,0L18,16.53a1.84,1.84,0,0,0,.83-1.44V8.78A1.82,1.82,0,0,0,18,7.35L12.52,4.19a1.86,1.86,0,0,0-1.68,0Z" transform="translate(-3.99 -3.49)"></path><path class="cls-1" d="M7.18,13.29a4.62,4.62,0,0,0,4.47,3.18,4.55,4.55,0,0,0,4.44-3.18l.08-.29H7.1Z" transform="translate(-3.99 -3.49)"></path><path class="cls-2" d="M10.13,10a.26.26,0,0,0-.06-.3L8.29,8l-.42.39L9.14,9.58H7v.55H9.86A.3.3,0,0,0,10.13,10Zm3.47.17h2.86V9.58H14.31l1.28-1.19L15.17,8,13.39,9.66a.26.26,0,0,0-.07.3A.32.32,0,0,0,13.6,10.13Z" transform="translate(-3.99 -3.49)"></path>
  </symbol><symbol  viewBox='0 0 240 240' id='dwebicon-hexagon-outlines'>
    <defs><style>.cls-1{fill:none;stroke:#000;stroke-width:1.5px;}</style></defs><title>hexagon-outlines</title><path class="cls-1" d="M11.18,4.19,5.76,7.33a1.86,1.86,0,0,0-.82,1.44v6.28a1.82,1.82,0,0,0,.82,1.43l2.4,1.39,3,1.76a1.82,1.82,0,0,0,1.64,0l5.42-3.15a1.82,1.82,0,0,0,.82-1.43V8.77a1.86,1.86,0,0,0-.82-1.44L12.82,4.19a1.78,1.78,0,0,0-1.64,0Z" transform="translate(-4.19 -3.24)"></path>
  </symbol><symbol  viewBox='0 0 240 240' id='dwebicon-info'>
    <defs><style>.cls-1{fill:none;stroke:#000;stroke-width:1.5px;}.cls-2,.cls-3{isolation:isolate;}.cls-3{font-size:12px;font-family:FredokaOne-Regular, Fredoka One;}</style></defs><title>info</title><path class="cls-1" d="M11.18,4.19,5.76,7.33a1.86,1.86,0,0,0-.82,1.44v6.28a1.82,1.82,0,0,0,.82,1.43l2.4,1.39,3,1.76a1.82,1.82,0,0,0,1.64,0l5.42-3.15a1.82,1.82,0,0,0,.82-1.43V8.77a1.86,1.86,0,0,0-.82-1.44L12.82,4.19a1.78,1.78,0,0,0-1.64,0Z" transform="translate(-4.19 -3.24)"></path><g class="cls-2"><text class="cls-3" transform="translate(6.34 13.69)">i</text></g>
  </symbol><symbol  viewBox='0 0 240 240' id='dwebicon-letter'>
    <defs><style>.cls-1,.cls-2{fill:none;stroke:#303c42;}.cls-2{stroke-width:2px;}</style></defs><title>letter</title><path class="cls-1" d="M4,11.39l7.44,1.47a.71.71,0,0,0,.78-.46l3-7.6" transform="translate(-3.49 -4.3)"></path><path class="cls-1" d="M11.2,18l7.62-4.49a.9.9,0,0,0,.32-1.17L15.66,5.25a.76.76,0,0,0-1.07-.35l-10.18,6a.91.91,0,0,0-.32,1.17L7,18" transform="translate(-3.49 -4.3)"></path><path class="cls-2" d="M5.6,18.4H18" transform="translate(-3.49 -4.3)"></path>
  </symbol><symbol  viewBox='0 0 240 240' id='dwebicon-link'>
    <defs><style>.cls-1{fill:none;stroke:#000;stroke-width:1.5px;}</style></defs><title>link</title><path class="cls-1" d="M11.27,4.19,5.85,7.33A1.86,1.86,0,0,0,5,8.77v6.28a1.82,1.82,0,0,0,.82,1.43l2.4,1.39,3,1.76a1.84,1.84,0,0,0,1.65,0l5.41-3.15a1.81,1.81,0,0,0,.83-1.43V8.77a1.84,1.84,0,0,0-.83-1.44L12.92,4.19A1.84,1.84,0,0,0,12.1,4,1.82,1.82,0,0,0,11.27,4.19Z" transform="translate(-4.28 -3.24)"></path><path d="M16.33,12a4.19,4.19,0,0,1-4.18,4.18H10.09A1.2,1.2,0,0,1,8.8,14.84V9.05a1.28,1.28,0,0,1,1.28-1.29v5.79c0,1.22.2,1.29,1.28,1.29h.78a2.9,2.9,0,0,0,0-5.79H11a1.25,1.25,0,0,1,1.11-1.29A4.2,4.2,0,0,1,16.33,12Z" transform="translate(-4.28 -3.24)"></path>
  </symbol><symbol  viewBox='0 0 240 240' id='dwebicon-loading'>
    <defs><style>.cls-1{fill:#121212;}.cls-2{fill:none;stroke:#000;stroke-width:0.8px;}</style></defs><title>loading</title><path class="cls-1" d="M17.43,11.93l-1.33.43a4.55,4.55,0,0,1-2.79,5.58,4,4,0,0,1-4.82-2.09L10.13,15a.42.42,0,0,0-.24-.53L7,13.38a.4.4,0,0,0-.5.26l-1,3.16a.41.41,0,0,0,.25.52l1.53-.81a5.41,5.41,0,0,0,6.47,2.86,6.06,6.06,0,0,0,3.72-7.44M7.06,11.79A4.52,4.52,0,0,1,9.94,6.21a4.22,4.22,0,0,1,5,2.09l-1.69.86a.42.42,0,0,0,.25.53l3,1.08A.41.41,0,0,0,17,10.5l1-3.15a.42.42,0,0,0-.25-.53l-1.58.82A5.63,5.63,0,0,0,9.53,4.78a6,6,0,0,0-3.84,7.44l1.37-.43" transform="translate(-5.44 -4.53)"></path><path class="cls-2" d="M10.34,10.1,9.27,11.63a.53.53,0,0,0,0,.49l.79,1.7a.55.55,0,0,0,.41.28l.82.08,1,.09a.55.55,0,0,0,.44-.21l1.07-1.53a.53.53,0,0,0,0-.49l-.79-1.7a.55.55,0,0,0-.4-.28l-1.86-.17a.45.45,0,0,0-.25,0A.53.53,0,0,0,10.34,10.1Z" transform="translate(-5.44 -4.53)"></path>
  </symbol><symbol  viewBox='0 0 240 240' id='dwebicon-lock'>
    <defs><style>.cls-1{fill:#121212;}.cls-2{fill:#fff;}</style></defs><title>lock</title><path class="cls-1" d="M11.86,5.52A2.42,2.42,0,0,1,14.3,7.93a3.42,3.42,0,0,1,0,.44c-.54-.06-2.82-.11-3-.11,0,0-1.24.05-1.77.11a2.25,2.25,0,0,1,0-.44A2.42,2.42,0,0,1,11.86,5.52ZM16,8.88c0-.14.07-.61.07-.73a4.24,4.24,0,0,0-8.44-.43,3,3,0,0,0,0,.43c0,.12,0,.59.06.7s-1.06.3-1.06.33a3.33,3.33,0,0,0-2.21,3.14v4.74a3,3,0,0,0,3,3h8.92a3,3,0,0,0,3-3V12.32a3.33,3.33,0,0,0-2.21-3.14S16.09,8.9,16,8.88Z" transform="translate(-4.42 -3.99)"></path><path class="cls-2" d="M14.61,14.53a2.86,2.86,0,0,1-2.85,2.85H10.35a.82.82,0,0,1-.88-.88V12.55a.89.89,0,0,1,.88-.88v3.95c0,.83.14.88.88.88h.53a2,2,0,0,0,0-3.95H11a.86.86,0,0,1,.76-.88A2.86,2.86,0,0,1,14.61,14.53Z" transform="translate(-4.42 -3.99)"></path>
  </symbol><symbol  viewBox='0 0 240 240' id='dwebicon-menu'>
    <defs><style>.cls-1{fill:none;stroke:#000;stroke-width:1.5px;}.cls-2{fill:#121212;}</style></defs><title>menu</title><path class="cls-1" d="M11.18,4.19,5.76,7.33a1.86,1.86,0,0,0-.82,1.44v6.28a1.82,1.82,0,0,0,.82,1.43l2.4,1.39,3,1.76a1.82,1.82,0,0,0,1.64,0l5.42-3.15a1.82,1.82,0,0,0,.82-1.43V8.77a1.86,1.86,0,0,0-.82-1.44L12.82,4.19a1.78,1.78,0,0,0-1.64,0Z" transform="translate(-4.19 -3.24)"></path><path class="cls-2" d="M14.86,11.19H9A1.25,1.25,0,1,1,9,8.7h5.84a1.25,1.25,0,1,1,0,2.49m0,3.77H9a1.25,1.25,0,1,1,0-2.49h5.84a1.25,1.25,0,1,1,0,2.49" transform="translate(-4.19 -3.24)"></path>
  </symbol><symbol  viewBox='0 0 240 240' id='dwebicon-network'>
    <defs><style>.cls-1{fill:none;stroke:#000;stroke-width:0.5px;}.cls-2{fill:#fff;}</style></defs><title>network</title><path class="cls-1" d="M7.64,4.09,5,5.58a.89.89,0,0,0-.4.69v3a.88.88,0,0,0,.4.68l1.16.66,1.46.84a.93.93,0,0,0,.8,0l2.62-1.5a.88.88,0,0,0,.4-.68v-3a.89.89,0,0,0-.4-.69L8.44,4.09A1,1,0,0,0,8,4,1,1,0,0,0,7.64,4.09Zm7.74,0L12.75,5.58a.91.91,0,0,0-.39.69v3a.89.89,0,0,0,.39.68l1.17.66,1.46.84a.91.91,0,0,0,.79,0l2.63-1.5a.88.88,0,0,0,.4-.68v-3a.89.89,0,0,0-.4-.69L16.17,4.09a.93.93,0,0,0-.39-.1A1,1,0,0,0,15.38,4.09Z" transform="translate(-4.37 -3.74)"></path><path d="M11.36,10.34,8.05,12.25a1.15,1.15,0,0,0-.5.88V17a1.13,1.13,0,0,0,.5.87l1.47.85,1.84,1.07a1.12,1.12,0,0,0,1,0l3.3-1.92a1.1,1.1,0,0,0,.5-.87V13.13a1.12,1.12,0,0,0-.5-.88l-3.3-1.91a1,1,0,0,0-.5-.12A1,1,0,0,0,11.36,10.34Z" transform="translate(-4.37 -3.74)"></path><path class="cls-2" d="M14.73,15.05A2.77,2.77,0,0,1,12,17.83H10.64A.79.79,0,0,1,9.8,17V13.12a.84.84,0,0,1,.84-.85v3.85c0,.8.13.85.84.85H12a1.93,1.93,0,0,0,0-3.85h-.73a.83.83,0,0,1,.73-.85A2.77,2.77,0,0,1,14.73,15.05Z" transform="translate(-4.37 -3.74)"></path>
  </symbol><symbol  viewBox='0 0 240 240' id='dwebicon-new-dpack'>
    <defs><style>.cls-1{fill:#121212;}.cls-2{font-size:10.83px;font-family:FredokaOne-Regular, Fredoka One;}.cls-3{fill:#fff;}</style></defs><title>new-dpack</title><path class="cls-1" d="M21,17.16a4,4,0,0,1-1.35,1.1l-.06,0-.31.14-.12,0-.3.08-.13,0-.3.05-.13,0c-.14,0-.29,0-.44,0a3.87,3.87,0,0,1-3.94-3.79,3.87,3.87,0,0,1,3.94-3.78,3.71,3.71,0,0,1,.47,0h.13l.33.07.13,0a1.9,1.9,0,0,1,.36.12l.07,0,.39.18.05,0c.13.07.25.15.37.23l.05,0a4.47,4.47,0,0,1,.35.29,3.87,3.87,0,0,1,.62.72,3.68,3.68,0,0,1,.61,2A3.64,3.64,0,0,1,21,17.16Zm-5,2.5h0S16,19.67,16,19.66Zm6.31-7.49a5.09,5.09,0,0,0-.84-1,4.94,4.94,0,0,0-.44-.36L21,10.78a4,4,0,0,0-.47-.29l-.05,0a5.94,5.94,0,0,0-.57-.27l-.08,0L19.29,10l-.18,0c-.14,0,.13-.24-1.94-.51H10.39V8.73c-.06-1.26-.16-2.33-1.15-2.33h0L3,6.07c0-.62.2-.78.77-.78h0l6.47.06h0a2,2,0,0,1,1.74,2v.61h4.78c1.16,0,1.84.79,2.17,2l.15,0,.17.05a4.16,4.16,0,0,1,.5.16l.08,0a4.31,4.31,0,0,1,.49.22V7.31c0-2.09.09-3.77-1.93-3.77H3.8c-1.46,0-1.75.88-1.81,2.15H1.78c-1,0-.92,1-.92,2V16c0,2.19.73,4,2.85,4H17.15l.33,0a5.12,5.12,0,0,1-1.18-.21,5.87,5.87,0,0,0,1.56.21,5.68,5.68,0,0,0,.59,0l.18,0,.41-.07.17-.05.4-.11.15-.06.45-.18.07,0a5.47,5.47,0,0,0,1.8-1.47,4.9,4.9,0,0,0,.23-5.77Z" transform="translate(-0.86 -3.54)"></path><text class="cls-2" transform="translate(14.42 14.27) scale(1.01 1)">+</text><path class="cls-3" d="M10.57,14.23a5,5,0,0,1-4.89,5.08H3.27a1.44,1.44,0,0,1-1.51-1.56v-7A1.54,1.54,0,0,1,3.27,9.14v7c0,1.47.23,1.57,1.51,1.57h.9a3.52,3.52,0,0,0,0-7H4.38a1.51,1.51,0,0,1,1.3-1.57A5,5,0,0,1,10.57,14.23Z" transform="translate(-0.86 -3.54)"></path>
  </symbol><symbol  viewBox='0 0 240 240' id='dwebicon-open-in-desktop'>
    <defs><style>.cls-1{fill:none;stroke:#000;stroke-width:0.4px;}</style></defs><title>open-in-desktop</title><path d="M6.07,16.45H17.93a1.25,1.25,0,0,0,1.19-1.28V7.05a1.25,1.25,0,0,0-1.19-1.28H6.07A1.25,1.25,0,0,0,4.88,7.05v8.12A1.25,1.25,0,0,0,6.07,16.45Zm0-9.4H17.93v8.12H6.07Z" transform="translate(-3.99 -5.77)"></path><rect y="11.56" width="16.01" height="1"></rect><path class="cls-1" d="M12,8.51,10.14,9.57a.61.61,0,0,0-.27.48v2.12a.61.61,0,0,0,.27.48l.81.47,1,.59a.59.59,0,0,0,.55,0l1.83-1.06a.62.62,0,0,0,.28-.48V10.05a.62.62,0,0,0-.28-.48L12.52,8.51a.47.47,0,0,0-.27-.07A.53.53,0,0,0,12,8.51Z" transform="translate(-3.99 -5.77)"></path>
  </symbol><symbol  viewBox='0 0 240 240' id='dwebicon-open-in-finder'>
    <defs><style>.cls-1{fill:#1a171b;}.cls-2{fill:none;stroke:#000;}</style></defs><title>open-in-finder</title><path class="cls-1" d="M9.17,17A6.85,6.85,0,0,1,8,16.48a.32.32,0,0,0-.36.06.17.17,0,0,0,.08.27A7.51,7.51,0,0,0,9,17.32l.09,0a.27.27,0,0,0,.24-.13A.2.2,0,0,0,9.17,17ZM5.8,14.66a6.24,6.24,0,0,1-1.3-3.83A6.46,6.46,0,0,1,13.43,5a.26.26,0,0,0,.33-.13.25.25,0,0,0-.13-.32A7,7,0,0,0,4,10.83,6.72,6.72,0,0,0,5.4,15a5.59,5.59,0,0,0,.45.52.24.24,0,0,0,.35,0,.24.24,0,0,0,0-.35C6.07,15,5.93,14.83,5.8,14.66Z" transform="translate(-3.99 -3.99)"></path><path class="cls-1" d="M19.51,17.2a.25.25,0,1,0-.36.35,1.12,1.12,0,0,1,0,1.62,1.22,1.22,0,0,1-1.65,0l-1.76-1.73a7,7,0,0,0,1.65-1.61l.83.81a.25.25,0,0,0,.36,0,.24.24,0,0,0,0-.35l-1-1a.25.25,0,0,0-.2-.07.27.27,0,0,0-.19.11,1.34,1.34,0,0,1-.11.14l-1-1a6.8,6.8,0,0,0-1.5-9.52.26.26,0,0,0-.36,0,.25.25,0,0,0,.05.35,6.34,6.34,0,0,1,2.61,5.13,6.5,6.5,0,0,1-6.56,6.43q-.33,0-.66,0a.26.26,0,0,0-.28.23.25.25,0,0,0,.23.27c.23,0,.47,0,.71,0a7.15,7.15,0,0,0,4.08-1.27l1,1-.14.1a.22.22,0,0,0-.11.18.25.25,0,0,0,.07.2l2,1.94a1.71,1.71,0,0,0,1.19.49,1.66,1.66,0,0,0,1.18-.49A1.61,1.61,0,0,0,19.51,17.2Zm-4.75-1.39a7.82,7.82,0,0,0,1-.94l1,1a6.23,6.23,0,0,1-1,1Z" transform="translate(-3.99 -3.99)"></path><path class="cls-2" d="M10.2,6.28,7.13,8.06a1,1,0,0,0-.47.81v3.56a1,1,0,0,0,.47.81L8.49,14l1.71,1a1,1,0,0,0,.93,0l3.07-1.78a1,1,0,0,0,.47-.81V8.87a1,1,0,0,0-.47-.81L11.13,6.28a.87.87,0,0,0-.46-.11A.91.91,0,0,0,10.2,6.28Z" transform="translate(-3.99 -3.99)"></path>
  </symbol><symbol  viewBox='0 0 240 240' id='dwebicon-plus'>
    <defs><style>.cls-1,.cls-2{isolation:isolate;}.cls-2{font-size:17px;font-family:FredokaOne-Regular, Fredoka One;}</style></defs><title>plus</title><g class="cls-1"><text class="cls-2" transform="translate(0 14.73)">+</text></g>
  </symbol><symbol  viewBox='0 0 240 240' id='dwebicon-question'>
    <defs><style>.cls-1{fill:none;stroke:#000;stroke-width:1.5px;}.cls-2,.cls-3{isolation:isolate;}.cls-3{font-size:12.78px;font-family:FredokaOne-Regular, Fredoka One;}</style></defs><title>question</title><path class="cls-1" d="M11.18,4.19,5.76,7.33a1.86,1.86,0,0,0-.82,1.44v6.28a1.82,1.82,0,0,0,.82,1.43l2.4,1.39,3,1.76a1.82,1.82,0,0,0,1.64,0l5.42-3.15a1.82,1.82,0,0,0,.82-1.43V8.77a1.86,1.86,0,0,0-.82-1.44L12.82,4.19a1.78,1.78,0,0,0-1.64,0Z" transform="translate(-4.19 -3.24)"></path><g class="cls-2"><text class="cls-3" transform="translate(5.03 13.36) scale(0.94 1)">?</text></g>
  </symbol><symbol  viewBox='0 0 240 240' id='dwebicon-sad-face'>
    <defs><style>.cls-1,.cls-2{stroke:#000;}.cls-1{stroke-width:0.2px;}.cls-2{fill:none;}</style></defs><title>sad-face</title><path class="cls-1" d="M15.2,14.61a.21.21,0,0,1-.18-.09,4.18,4.18,0,0,0-3-1,4.18,4.18,0,0,0-3.05,1,.24.24,0,0,1-.34,0,.25.25,0,0,1,0-.34A4.56,4.56,0,0,1,12,13a4.56,4.56,0,0,1,3.42,1.22.25.25,0,0,1,0,.34A.3.3,0,0,1,15.2,14.61ZM12.9,9.74l1.53-1.32a.25.25,0,0,0,0-.34.24.24,0,0,0-.34,0L12.58,9.37a.24.24,0,0,0,0,.34.23.23,0,0,0,.18.09A.25.25,0,0,0,12.9,9.74ZM9.5,11.28c0,.7.28,1.28.62,1.28s.63-.58.63-1.28S10.47,10,10.12,10,9.5,10.57,9.5,11.28Zm4,0c0,.7.28,1.28.62,1.28s.63-.58.63-1.28S14.47,10,14.12,10,13.5,10.57,13.5,11.28Zm-3-1.49a.24.24,0,0,0,0-.34L8.9,8.06a.24.24,0,0,0-.32.36l1.61,1.39a.23.23,0,0,0,.16.06A.27.27,0,0,0,10.53,9.79Z" transform="translate(-3.99 -3.49)"></path><path class="cls-2" d="M10.84,4.19,5.33,7.37a1.87,1.87,0,0,0-.84,1.45v6.36a1.87,1.87,0,0,0,.84,1.45L7.77,18l3.07,1.78a1.89,1.89,0,0,0,1.67,0L18,16.63a1.87,1.87,0,0,0,.84-1.45V8.82A1.87,1.87,0,0,0,18,7.37l-5.5-3.18a1.84,1.84,0,0,0-1.67,0Z" transform="translate(-3.99 -3.49)"></path>
  </symbol><symbol  viewBox='0 0 240 240' id='dwebicon-search'>
    <defs><style>.cls-1{fill:#1a171b;}.cls-2{fill:none;stroke:#000;}</style></defs><title>search</title><path class="cls-1" d="M9.17,17A6.85,6.85,0,0,1,8,16.48a.32.32,0,0,0-.36.06.17.17,0,0,0,.08.27A7.51,7.51,0,0,0,9,17.32l.09,0a.27.27,0,0,0,.24-.13A.2.2,0,0,0,9.17,17ZM5.8,14.66a6.24,6.24,0,0,1-1.3-3.83A6.46,6.46,0,0,1,13.43,5a.26.26,0,0,0,.33-.13.25.25,0,0,0-.13-.32A7,7,0,0,0,4,10.83,6.72,6.72,0,0,0,5.4,15a5.59,5.59,0,0,0,.45.52.24.24,0,0,0,.35,0,.24.24,0,0,0,0-.35C6.07,15,5.93,14.83,5.8,14.66Z" transform="translate(-3.99 -3.99)"></path><path class="cls-1" d="M19.51,17.2a.25.25,0,1,0-.36.35,1.12,1.12,0,0,1,0,1.62,1.22,1.22,0,0,1-1.65,0l-1.76-1.73a7,7,0,0,0,1.65-1.61l.83.81a.25.25,0,0,0,.36,0,.24.24,0,0,0,0-.35l-1-1a.25.25,0,0,0-.2-.07.27.27,0,0,0-.19.11,1.34,1.34,0,0,1-.11.14l-1-1a6.8,6.8,0,0,0-1.5-9.52.26.26,0,0,0-.36,0,.25.25,0,0,0,.05.35,6.34,6.34,0,0,1,2.61,5.13,6.5,6.5,0,0,1-6.56,6.43q-.33,0-.66,0a.26.26,0,0,0-.28.23.25.25,0,0,0,.23.27c.23,0,.47,0,.71,0a7.15,7.15,0,0,0,4.08-1.27l1,1-.14.1a.22.22,0,0,0-.11.18.25.25,0,0,0,.07.2l2,1.94a1.71,1.71,0,0,0,1.19.49,1.66,1.66,0,0,0,1.18-.49A1.61,1.61,0,0,0,19.51,17.2Zm-4.75-1.39a7.82,7.82,0,0,0,1-.94l1,1a6.23,6.23,0,0,1-1,1Z" transform="translate(-3.99 -3.99)"></path><path class="cls-2" d="M10.2,6.28,7.13,8.06a1,1,0,0,0-.47.81v3.56a1,1,0,0,0,.47.81L8.49,14l1.71,1a1,1,0,0,0,.93,0l3.07-1.78a1,1,0,0,0,.47-.81V8.87a1,1,0,0,0-.47-.81L11.13,6.28a.87.87,0,0,0-.46-.11A.91.91,0,0,0,10.2,6.28Z" transform="translate(-3.99 -3.99)"></path>
  </symbol></svg>