<svg id="Layer_1" data-name="Layer 1" xmlns="http://www.w3.org/2000/svg" viewBox="0 0 14.61 16.25"><defs><style>.cls-1,.cls-2{fill:none;stroke:#000;}.cls-2{stroke-linecap:round;stroke-linejoin:round;}</style></defs><title>check</title><g id="Page-1"><g id="check"><g id="Group"><g id="check-2" data-name="check"><path id="Fill-1" class="cls-1" d="M11.21,4.18,6,7.21A1.76,1.76,0,0,0,5.2,8.59v6.06A1.78,1.78,0,0,0,6,16L8.3,17.37l2.91,1.68a1.7,1.7,0,0,0,1.58,0L18,16a1.78,1.78,0,0,0,.79-1.38V8.59A1.76,1.76,0,0,0,18,7.21l-5.22-3a1.74,1.74,0,0,0-1.58,0Z" transform="translate(-4.7 -3.49)"/><path id="Stroke-640" class="cls-2" d="M8.4,11.6A3.6,3.6,0,1,1,12,15.2,3.6,3.6,0,0,1,8.4,11.6Z" transform="translate(-4.7 -3.49)"/><polyline id="Stroke-642" class="cls-2" points="5.3 8.28 6.36 9.32 8.84 6.9"/></g></g></g></g></svg>