<svg id="Layer_1" data-name="Layer 1" xmlns="http://www.w3.org/2000/svg" viewBox="0 0 13.23 15.72"><defs><style>.cls-1{fill:#fff;}</style></defs><title>clipboard</title><path d="M13.07,7.48a.54.54,0,0,0,.53-.57.54.54,0,0,0-.53-.57h-4a.58.58,0,0,0-.57.57.57.57,0,0,0,.57.57Z" transform="translate(-5.2 -4.07)"/><path d="M18.15,12.24l-1.21-.7V5.35a1.28,1.28,0,0,0-1.28-1.28H6.49A1.28,1.28,0,0,0,5.2,5.35V16.16a1.28,1.28,0,0,0,1.29,1.28H10a.45.45,0,0,0,.13.11l3.74,2.16a.53.53,0,0,0,.57,0l3.73-2.16a.56.56,0,0,0,.29-.49V12.73A.56.56,0,0,0,18.15,12.24ZM6.34,16.16V5.35a.15.15,0,0,1,.15-.15h9.17a.17.17,0,0,1,.15.15v5.53l-1.39-.8a.58.58,0,0,0-.57,0l-3.74,2.16a.58.58,0,0,0-.28.49V16.3H6.49A.15.15,0,0,1,6.34,16.16Z" transform="translate(-5.2 -4.07)"/><path class="cls-1" d="M17.09,14.8a3,3,0,0,1-2.95,3H12.69a.85.85,0,0,1-.9-.93V12.72a.91.91,0,0,1,.9-.93V16c0,.88.14.93.91.93h.54a2.09,2.09,0,0,0,0-4.17h-.77a.89.89,0,0,1,.77-.93A3,3,0,0,1,17.09,14.8Z" transform="translate(-5.2 -4.07)"/></svg>