<svg id="Layer_1" data-name="Layer 1" xmlns="http://www.w3.org/2000/svg" viewBox="0 0 15.22 11.49"><defs><style>.cls-1{fill:#121212;}</style></defs><title>delete</title><path class="cls-1" d="M17.75,15.61a2.75,2.75,0,0,1-.92.77l0,0-.22.09-.07,0-.21.06-.08,0-.21,0h-.09l-.3,0a2.64,2.64,0,1,1,0-5.28l.32,0H16l.22.05.1,0,.24.08,0,0,.27.12,0,0,.25.16,0,0,.24.2a2,2,0,0,1,.41.5,2.58,2.58,0,0,1-.12,3Zm-3.41,1.75h0Zm4.31-5.23a3.67,3.67,0,0,0-.57-.68,2.42,2.42,0,0,0-.31-.25l-.05,0a2.36,2.36,0,0,0-.32-.2l0,0a3.52,3.52,0,0,0-.39-.18l0,0-.34-.11-.12,0c-.1,0,.09-.17-1.32-.36H10.51v-.5c0-.88-.11-1.63-.79-1.63h0L5.45,7.87c0-.43.13-.54.52-.54H6l4.43,0h0a1.4,1.4,0,0,1,1.19,1.37v.43h3.26c.79,0,1.26.55,1.48,1.38l.1,0a.24.24,0,0,1,.12,0,1.93,1.93,0,0,1,.34.11l.06,0a2.49,2.49,0,0,1,.33.16V8.74c0-1.46.06-2.64-1.31-2.64H6c-1,0-1.19.62-1.23,1.51H4.63C3.93,7.61,4,8.28,4,9v5.79c0,1.54.49,2.78,1.94,2.78h9.41a4,4,0,0,1-.8-.15,4.17,4.17,0,0,0,1.06.15,2.69,2.69,0,0,0,.4,0h.12l.28-.06.12,0,.27-.08.11,0a1.94,1.94,0,0,0,.3-.13l.05,0a3.8,3.8,0,0,0,1.23-1,3.46,3.46,0,0,0,.16-4Z" transform="translate(-3.99 -6.1)"/><path class="cls-1" d="M17,13.69H14.3a.44.44,0,1,0,0,.87H17a.44.44,0,1,0,0-.87" transform="translate(-3.99 -6.1)"/></svg>