<svg id="Layer_1" data-name="Layer 1" xmlns="http://www.w3.org/2000/svg" viewBox="0 0 22.96 18.52"><defs><style>.cls-1,.cls-2,.cls-3,.cls-4{fill:none;stroke-linecap:round;stroke-linejoin:round;}.cls-1,.cls-2{stroke:#303c42;}.cls-1{stroke-width:0.5px;}.cls-2{stroke-width:0.4px;}.cls-3,.cls-4{stroke:#000;}.cls-4{stroke-width:0.7px;}</style></defs><title>download</title><path class="cls-1" d="M7.1,17.5V19M8.41,17.5V19M9.72,17.5V19" transform="translate(-0.95 -2.52)"/><path class="cls-2" d="M18.36,18.38A.38.38,0,1,1,18,18,.37.37,0,0,1,18.36,18.38Zm-2.62,0a.38.38,0,1,1-.38-.36A.37.37,0,0,1,15.74,18.38Z" transform="translate(-0.95 -2.52)"/><path class="cls-3" d="M20.37,16.74a3.68,3.68,0,0,0,3-3.56,3.68,3.68,0,0,0-3.06-3.56A7.07,7.07,0,0,0,13.15,3,7.21,7.21,0,0,0,6.44,7.38H6.31A5.08,5.08,0,0,1,9,8.11M6.39,7a4.83,4.83,0,0,0-4.94,4.71,4.73,4.73,0,0,0,3,4.36" transform="translate(-0.95 -2.52)"/><path class="cls-3" d="M19.29,20.53H5.61a1.11,1.11,0,0,1-1.14-1.08V17.27a1.12,1.12,0,0,1,1.14-1.09H19.29a1.12,1.12,0,0,1,1.14,1.09v2.18A1.11,1.11,0,0,1,19.29,20.53ZM19.44,9.6a3.67,3.67,0,0,1,.75.07Z" transform="translate(-0.95 -2.52)"/><path class="cls-4" d="M4.87,17l3.88-4.3a1.55,1.55,0,0,1,1.15-.5h5.45a1.55,1.55,0,0,1,1.15.5L20.38,17" transform="translate(-0.95 -2.52)"/><path d="M17.07,7.84a3.59,3.59,0,0,1-3.5,3.66H11.84a1,1,0,0,1-1.07-1.12V5.31a1.1,1.1,0,0,1,1.07-1.13V9.25c0,1.06.17,1.13,1.08,1.13h.65A2.49,2.49,0,0,0,16,7.84a2.48,2.48,0,0,0-2.43-2.53h-.93a1.08,1.08,0,0,1,.93-1.13A3.59,3.59,0,0,1,17.07,7.84Z" transform="translate(-0.95 -2.52)"/></svg>