<svg id="Layer_1" data-name="Layer 1" xmlns="http://www.w3.org/2000/svg" viewBox="0 0 15.87 12.84"><defs><style>.cls-1,.cls-2,.cls-3,.cls-4{fill:none;stroke-linecap:round;stroke-linejoin:round;}.cls-1,.cls-2{stroke:#303c42;}.cls-1{stroke-width:0.5px;}.cls-2{stroke-width:0.4px;}.cls-3,.cls-4{stroke:#000;}.cls-4{stroke-width:0.7px;}</style></defs><title>download</title><path class="cls-1" d="M8.44,15.56v1m.89-1v1m.89-1v1" transform="translate(-4.12 -5.27)"/><path class="cls-2" d="M16.07,16.16a.25.25,0,0,1-.25.24.25.25,0,1,1,.25-.24Zm-1.78,0a.25.25,0,0,1-.25.24.25.25,0,1,1,.25-.24Z" transform="translate(-4.12 -5.27)"/><path class="cls-3" d="M17.43,15a2.43,2.43,0,0,0,0-4.8,4.8,4.8,0,0,0-4.88-4.47A4.89,4.89,0,0,0,8,8.72H7.91a3.43,3.43,0,0,1,1.8.5M8,8.44a3.27,3.27,0,0,0-3.34,3.19,3.18,3.18,0,0,0,2.06,2.94" transform="translate(-4.12 -5.27)"/><path class="cls-3" d="M16.7,17.61H7.44a.76.76,0,0,1-.78-.73V15.4a.76.76,0,0,1,.78-.73H16.7a.75.75,0,0,1,.77.73v1.48A.75.75,0,0,1,16.7,17.61Zm.1-7.39a2.84,2.84,0,0,1,.51,0Z" transform="translate(-4.12 -5.27)"/><path class="cls-4" d="M6.93,15.24l2.63-2.9a1,1,0,0,1,.78-.34H14a1,1,0,0,1,.78.34l2.63,2.9" transform="translate(-4.12 -5.27)"/><path d="M14.24,9.15a1.76,1.76,0,0,1-1.74,1.78h-.85a.5.5,0,0,1-.54-.54V7.92a.54.54,0,0,1,.54-.54V9.84c0,.51.08.55.53.55h.32a1.24,1.24,0,0,0,0-2.47H12a.53.53,0,0,1,.46-.54A1.76,1.76,0,0,1,14.24,9.15Z" transform="translate(-4.12 -5.27)"/></svg>