<svg id="Layer_1" data-name="Layer 1" xmlns="http://www.w3.org/2000/svg" viewBox="0 0 15.63 17.33"><defs><style>.cls-1{fill:none;stroke:#000;stroke-width:1.5px;}.cls-2{fill:#121212;}</style></defs><title>dweb-upload</title><path class="cls-1" d="M11.18,4.19,5.76,7.33a1.86,1.86,0,0,0-.82,1.44v6.28a1.82,1.82,0,0,0,.82,1.43l2.4,1.39,3,1.76a1.82,1.82,0,0,0,1.64,0l5.42-3.15a1.82,1.82,0,0,0,.82-1.43V8.77a1.86,1.86,0,0,0-.82-1.44L12.82,4.19a1.78,1.78,0,0,0-1.64,0Z" transform="translate(-4.19 -3.24)"/><path class="cls-2" d="M13,15.68V10.61h1.67a.65.65,0,0,0,0-.73L12.37,7a.34.34,0,0,0-.56,0L9.57,9.88a.65.65,0,0,0,0,.73h1.58v5.07c0,.28.18.52.39.52h1a.48.48,0,0,0,.4-.52" transform="translate(-4.19 -3.24)"/></svg>