<svg id="Layer_1" data-name="Layer 1" xmlns="http://www.w3.org/2000/svg" viewBox="0 0 14.84 16.45"><defs><style>.cls-1{fill:none;stroke:#000;stroke-width:1.5px;}.cls-2,.cls-3{isolation:isolate;}.cls-3{font-size:13.5px;font-family:FredokaOne-Regular, Fredoka One;}</style></defs><title>dweb-exit</title><path class="cls-1" d="M11.22,5.07,6.11,8a1.72,1.72,0,0,0-.78,1.35v5.94a1.74,1.74,0,0,0,.78,1.35L8.37,18l2.85,1.66a1.78,1.78,0,0,0,1.56,0l5.11-3a1.74,1.74,0,0,0,.78-1.35V9.39A1.72,1.72,0,0,0,17.89,8l-5.11-3A1.72,1.72,0,0,0,12,4.88,1.8,1.8,0,0,0,11.22,5.07Z" transform="translate(-4.58 -4.13)"/><g class="cls-2"><text class="cls-3" transform="translate(3.18 12.07) scale(1.11 1)">x</text></g></svg>