<svg id="Layer_1" data-name="Layer 1" xmlns="http://www.w3.org/2000/svg" viewBox="0 0 14.55 17.01"><defs><style>.cls-1{fill:none;stroke:#000;}</style></defs><title>dweb-resume</title><path d="M9.69,5.6a.34.34,0,0,1,0,.68H8.58a1.93,1.93,0,0,0-1.82,2V10l.41-.46a.3.3,0,0,1,.44,0,.38.38,0,0,1,0,.49l-.94,1a.29.29,0,0,1-.44,0l-.94-1a.38.38,0,0,1,0-.49.3.3,0,0,1,.44,0l.41.46V8.29A2.57,2.57,0,0,1,8.57,5.6Zm5.73,12.11a1.92,1.92,0,0,0,1.82-2V14l-.41.45a.28.28,0,0,1-.44,0,.36.36,0,0,1,0-.48l.94-1a.3.3,0,0,1,.44,0l.94,1a.37.37,0,0,1,0,.48.28.28,0,0,1-.44,0L17.86,14v1.74a2.58,2.58,0,0,1-2.44,2.69H14.31a.33.33,0,0,1-.31-.34.33.33,0,0,1,.31-.35Z" transform="translate(-4.7 -3.49)"/><path class="cls-1" d="M14.76,4.09,12,5.68a.94.94,0,0,0-.42.73V9.59a.93.93,0,0,0,.42.72l1.21.7,1.53.89a.93.93,0,0,0,.83,0l2.74-1.59a.92.92,0,0,0,.41-.72V6.41a.93.93,0,0,0-.41-.73L15.59,4.09a1.13,1.13,0,0,0-.42-.1A1,1,0,0,0,14.76,4.09Z" transform="translate(-4.7 -3.49)"/><path d="M17.34,7.86a2.23,2.23,0,0,1-2.21,2.26H14a.64.64,0,0,1-.68-.69V6.29A.69.69,0,0,1,14,5.6V8.73c0,.65.11.7.68.7h.41a1.57,1.57,0,0,0,0-3.14h-.58a.66.66,0,0,1,.58-.69A2.24,2.24,0,0,1,17.34,7.86Zm-6.4,8a2.24,2.24,0,0,1-2.21,2.27H7.64a.64.64,0,0,1-.68-.7V14.3a.69.69,0,0,1,.68-.7v3.13c0,.66.1.7.68.7h.41a1.57,1.57,0,0,0,0-3.13H8.14a.67.67,0,0,1,.59-.7A2.25,2.25,0,0,1,10.94,15.86Z" transform="translate(-4.7 -3.49)"/><path class="cls-1" d="M8.35,12.1,5.61,13.69a.92.92,0,0,0-.41.72v3.18a.93.93,0,0,0,.41.73l1.22.7,1.52.89a.93.93,0,0,0,.83,0l2.74-1.59a.94.94,0,0,0,.42-.73V14.41a.93.93,0,0,0-.42-.72L9.18,12.1a.78.78,0,0,0-.41-.1A.84.84,0,0,0,8.35,12.1Z" transform="translate(-4.7 -3.49)"/></svg>