<svg id="Layer_1" data-name="Layer 1" xmlns="http://www.w3.org/2000/svg" viewBox="0 0 15.63 17.33"><defs><style>.cls-1{fill:none;stroke:#000;stroke-width:1.5px;}.cls-2{fill:#121212;}</style></defs><title>dweb-import</title><path class="cls-1" d="M11.18,4.19,5.76,7.33a1.86,1.86,0,0,0-.82,1.44v6.28a1.82,1.82,0,0,0,.82,1.43l2.4,1.39,3,1.76a1.82,1.82,0,0,0,1.64,0l5.42-3.15a1.82,1.82,0,0,0,.82-1.43V8.77a1.86,1.86,0,0,0-.82-1.44L12.82,4.19a1.78,1.78,0,0,0-1.64,0Z" transform="translate(-4.19 -3.24)"/><path class="cls-2" d="M7.64,12.63h5.3v1.79a.66.66,0,0,0,.76,0l3-2.4a.36.36,0,0,0,0-.6L13.7,9a.63.63,0,0,0-.76,0V10.7H7.64a.49.49,0,0,0-.54.43v1.08a.49.49,0,0,0,.54.42" transform="translate(-4.19 -3.24)"/></svg>