<svg id="Layer_1" data-name="Layer 1" xmlns="http://www.w3.org/2000/svg" viewBox="0 0 12.53 15.99"><defs><style>.cls-1{fill:none;stroke:#000;stroke-width:0.5px;}.cls-2{fill:#121212;}</style></defs><title>dweb-edit</title><path d="M15.2,4.07l-2,1.13a.66.66,0,0,0-.3.52V8a.65.65,0,0,0,.3.52l.86.5,1.1.64a.68.68,0,0,0,.59,0l2-1.14A.66.66,0,0,0,18.05,8V5.72a.68.68,0,0,0-.29-.52l-2-1.13a.58.58,0,0,0-.59,0Z" transform="translate(-5.52 -3.99)"/><path class="cls-1" d="M10.91,13.33,9.81,14a.37.37,0,0,0-.17.29v1.27a.37.37,0,0,0,.17.29l.49.28.61.36a.38.38,0,0,0,.33,0l1.1-.64a.37.37,0,0,0,.17-.29V14.26a.37.37,0,0,0-.17-.29l-1.1-.64a.38.38,0,0,0-.16,0A.39.39,0,0,0,10.91,13.33Z" transform="translate(-5.52 -3.99)"/><path class="cls-1" d="M14.87,17.62a.35.35,0,0,1-.34.36H7.7a.35.35,0,0,1-.33-.36V7.54a.35.35,0,0,1,.33-.37h6.83a.35.35,0,0,1,.34.37ZM14.53,5.43H7.7A2,2,0,0,0,5.77,7.54V17.62A2,2,0,0,0,7.7,19.73h6.83a2,2,0,0,0,1.93-2.11V7.54A2,2,0,0,0,14.53,5.43Z" transform="translate(-5.52 -3.99)"/><polygon class="cls-2" points="2.4 6.15 8.13 6.15 8.13 5.44 2.4 5.44 2.4 6.15"/><polygon class="cls-2" points="2.4 4.92 7.56 4.92 7.56 4.29 2.4 4.29 2.4 4.92"/><polygon class="cls-2" points="2.4 7.3 8.85 7.3 8.85 6.65 2.4 6.65 2.4 7.3"/></svg>