<svg id="Layer_1" data-name="Layer 1" xmlns="http://www.w3.org/2000/svg" viewBox="0 0 15.63 17.33"><defs><style>.cls-1{fill:none;stroke:#000;stroke-width:1.5px;}.cls-2{fill:#121212;}</style></defs><title>dweb-pause</title><path class="cls-1" d="M11.18,4.19,5.76,7.33a1.86,1.86,0,0,0-.82,1.44v6.28a1.82,1.82,0,0,0,.82,1.43l2.4,1.39,3,1.76a1.82,1.82,0,0,0,1.64,0l5.42-3.15a1.82,1.82,0,0,0,.82-1.43V8.77a1.86,1.86,0,0,0-.82-1.44L12.82,4.19a1.78,1.78,0,0,0-1.64,0Z" transform="translate(-4.19 -3.24)"/><path class="cls-2" d="M8.23,14.5V9.27A1.29,1.29,0,0,1,9.65,8.16a1.29,1.29,0,0,1,1.41,1.11V14.5a1.3,1.3,0,0,1-1.41,1.12A1.3,1.3,0,0,1,8.23,14.5Zm4.71,0V9.27a1.29,1.29,0,0,1,1.41-1.11,1.28,1.28,0,0,1,1.4,1.11V14.5a1.29,1.29,0,0,1-1.4,1.12A1.3,1.3,0,0,1,12.94,14.5Z" transform="translate(-4.19 -3.24)"/></svg>