<svg id="Layer_1" data-name="Layer 1" xmlns="http://www.w3.org/2000/svg" viewBox="0 0 13.77 15.54"><title>edit</title><path d="M16.85,18.62H6.25V5.2h6V4.14h-6A1.06,1.06,0,0,0,5.19,5.2V18.62a1.07,1.07,0,0,0,1.06,1.06h10.6a1.07,1.07,0,0,0,1.06-1.06V11.91H16.85Z" transform="translate(-5.19 -4.14)"/><path d="M18.65,5.46l-.74-.75a1.07,1.07,0,0,0-1.5,0s-5.89,5.88-6,6.24L10.17,12a1,1,0,0,0,.28,1,1,1,0,0,0,1,.28L12.51,13c.36-.1,6.14-6.07,6.14-6.07a1.05,1.05,0,0,0,0-1.5Zm-5.72,5.72-.72-.73,0,0,5-5,.75.75Z" transform="translate(-5.19 -4.14)"/><path d="M11.5,15.13A2.64,2.64,0,0,1,8.9,17.8H7.62a.76.76,0,0,1-.8-.82V13.29a.81.81,0,0,1,.8-.82v3.69c0,.77.13.82.8.82H8.9a1.85,1.85,0,0,0,0-3.69H8.21a.79.79,0,0,1,.69-.82A2.64,2.64,0,0,1,11.5,15.13Z" transform="translate(-5.19 -4.14)"/></svg>