<svg id="Layer_1" data-name="Layer 1" xmlns="http://www.w3.org/2000/svg" viewBox="0 0 15.63 17.33"><defs><style>.cls-1{fill:none;stroke:#000;stroke-width:1.5px;}</style></defs><title>favorite</title><path class="cls-1" d="M11.18,4.19,5.76,7.33a1.86,1.86,0,0,0-.82,1.44v6.28a1.82,1.82,0,0,0,.82,1.43l2.4,1.39,3,1.76a1.82,1.82,0,0,0,1.64,0l5.42-3.15a1.82,1.82,0,0,0,.82-1.43V8.77a1.86,1.86,0,0,0-.82-1.44L12.82,4.19a1.78,1.78,0,0,0-1.64,0Z" transform="translate(-4.19 -3.24)"/><path d="M12.05,7.28a4.61,4.61,0,1,0,4.6,4.6A4.6,4.6,0,0,0,12.05,7.28Zm0,8.58a4,4,0,1,1,2.81-1.16A4,4,0,0,1,12.05,15.86Z" transform="translate(-4.19 -3.24)"/><path d="M13.76,11.16l-1-.12-.45-.88A.33.33,0,0,0,12,10a.31.31,0,0,0-.28.16l-.44.89-1,.1a.32.32,0,0,0-.19.54l.74.75-.15,1a.3.3,0,0,0,.13.3.3.3,0,0,0,.33,0l.88-.48.89.45a.31.31,0,0,0,.45-.34l-.18-1,.71-.72a.33.33,0,0,0,.07-.33.3.3,0,0,0-.26-.2Zm-1.09.92a.32.32,0,0,0-.08.28l.1.53-.48-.25a.37.37,0,0,0-.29,0l-.47.26.08-.53a.34.34,0,0,0-.08-.27l-.4-.4.51,0a.31.31,0,0,0,.25-.18L12,11l.24.47a.3.3,0,0,0,.24.17l.53.07Z" transform="translate(-4.19 -3.24)"/></svg>