<svg id="Layer_1" data-name="Layer 1" xmlns="http://www.w3.org/2000/svg" viewBox="0 0 11.5 15.41"><defs><style>.cls-1{fill:none;stroke:#000;stroke-width:0.5px;}.cls-2{fill:#121212;}</style></defs><title>file</title><path class="cls-1" d="M16.14,17.36a.37.37,0,0,1-.35.38h-7a.36.36,0,0,1-.34-.38V6.84a.36.36,0,0,1,.34-.38h7a.37.37,0,0,1,.35.38ZM15.79,4.64h-7a2.1,2.1,0,0,0-2,2.2V17.36a2.1,2.1,0,0,0,2,2.2h7a2.11,2.11,0,0,0,2-2.2V6.84A2.11,2.11,0,0,0,15.79,4.64Z" transform="translate(-6.53 -4.39)"/><polygon class="cls-2" points="2.46 5.17 8.36 5.17 8.36 4.43 2.46 4.43 2.46 5.17"/><polygon class="cls-2" points="2.46 3.88 7.77 3.88 7.77 3.23 2.46 3.23 2.46 3.88"/><polygon class="cls-2" points="2.46 6.37 9.1 6.37 9.1 5.69 2.46 5.69 2.46 6.37"/><path d="M14.74,14.32a2.49,2.49,0,0,1-2.46,2.51H11.07a.71.71,0,0,1-.75-.77V12.58a.77.77,0,0,1,.75-.78v3.48c0,.73.12.78.76.78h.45a1.75,1.75,0,0,0,0-3.49h-.65a.75.75,0,0,1,.65-.78A2.5,2.5,0,0,1,14.74,14.32Z" transform="translate(-6.53 -4.39)"/></svg>