<svg id="Layer_1" data-name="Layer 1" xmlns="http://www.w3.org/2000/svg" viewBox="0 0 16.01 13.04"><defs><style>.cls-1{fill:#121212;}.cls-2{stroke:#000;stroke-width:0.4px;}</style></defs><title>folder</title><path class="cls-1" d="M18.47,16.21a3,3,0,0,1-1,.87l0,0-.23.11-.09,0a1.05,1.05,0,0,1-.21.06l-.09,0-.22.05h-.09l-.32,0a2.93,2.93,0,0,1-2.83-3,2.93,2.93,0,0,1,2.83-3l.34,0,.09,0,.24.05.1,0,.25.1h.05a1.77,1.77,0,0,1,.28.15l0,0,.27.18,0,0a2.61,2.61,0,0,1,.25.23,2.71,2.71,0,0,1,.44.57,3.09,3.09,0,0,1,.45,1.6A3.13,3.13,0,0,1,18.47,16.21Zm-3.6,2h0Zm4.54-5.94a4.33,4.33,0,0,0-.6-.77l-.32-.29-.06,0a2.85,2.85,0,0,0-.33-.23l0,0-.41-.2-.06,0a2.06,2.06,0,0,0-.35-.12l-.13,0c-.1,0,.09-.19-1.39-.4H10.84V9.52c0-1-.11-1.84-.83-1.84h0L5.52,7.42c0-.49.14-.62.55-.62h0l4.65,0h0A1.53,1.53,0,0,1,12,8.41v.48h3.43c.84,0,1.33.63,1.57,1.57l.1,0,.13,0,.35.13.06,0a3.84,3.84,0,0,1,.35.18V8.4c0-1.65.07-3-1.38-3H6.11c-1.05,0-1.26.7-1.3,1.71H4.66c-.74,0-.66.76-.66,1.6V15.3c0,1.74.52,3.15,2,3.15h9.9a3.47,3.47,0,0,1-.85-.17,3.9,3.9,0,0,0,1.12.17,3.11,3.11,0,0,0,.43,0l.12,0c.1,0,.2,0,.3-.06l.12,0,.29-.09.11-.05L17.9,18,18,18a4,4,0,0,0,1.29-1.16,4.19,4.19,0,0,0,.17-4.58Z" transform="translate(-3.99 -5.41)"/><path class="cls-2" d="M16.12,12.42l-1.29.75a.46.46,0,0,0-.19.34V15a.46.46,0,0,0,.19.34l.57.33.72.42a.44.44,0,0,0,.39,0l1.29-.75A.44.44,0,0,0,18,15v-1.5a.44.44,0,0,0-.2-.34l-1.29-.75a.38.38,0,0,0-.19,0A.45.45,0,0,0,16.12,12.42Z" transform="translate(-3.99 -5.41)"/></svg>