<svg id="Layer_1" data-name="Layer 1" xmlns="http://www.w3.org/2000/svg" viewBox="0 0 16.01 16.01"><title>gear</title><path d="M12,9.09A2.91,2.91,0,1,0,14.91,12,2.91,2.91,0,0,0,12,9.09Zm0,4.73A1.82,1.82,0,1,1,13.82,12,1.83,1.83,0,0,1,12,13.82Z" transform="translate(-3.99 -3.99)"/><path d="M18.91,9.82H17.78l-.15-.37.79-.79a1.09,1.09,0,0,0,0-1.55L16.88,5.57a1.08,1.08,0,0,0-1.54,0l-.8.8a3.92,3.92,0,0,0-.36-.16V5.09A1.09,1.09,0,0,0,13.09,4H10.91a1.09,1.09,0,0,0-1.09,1.1V6.21a3.92,3.92,0,0,0-.36.16l-.8-.8a1.08,1.08,0,0,0-1.54,0L5.58,7.11a1.09,1.09,0,0,0,0,1.55l.79.79c-.06.12-.11.24-.16.37H5.09A1.09,1.09,0,0,0,4,10.91v2.18a1.09,1.09,0,0,0,1.1,1.09H6.21c0,.13.1.25.16.37l-.8.79a1.09,1.09,0,0,0,0,1.55l1.54,1.54a1.08,1.08,0,0,0,1.54,0l.8-.8.36.16v1.12A1.09,1.09,0,0,0,10.9,20h2.18a1.09,1.09,0,0,0,1.09-1.1V17.79l.37-.16.79.8a1.08,1.08,0,0,0,1.54,0l1.55-1.54a1.11,1.11,0,0,0,0-1.55l-.79-.79c.06-.12.11-.24.16-.37h1.12A1.09,1.09,0,0,0,20,13.09V10.91a1.11,1.11,0,0,0-.33-.78A1,1,0,0,0,18.91,9.82Zm0,3.27H17a4.9,4.9,0,0,1-.69,1.65l1.37,1.38-1.54,1.54-1.38-1.37a5.28,5.28,0,0,1-1.65.68v1.94H10.89V17a5.28,5.28,0,0,1-1.65-.68L7.87,17.66,6.33,16.12,7.7,14.74A5.1,5.1,0,0,1,7,13.09H5.09V10.91H7a4.9,4.9,0,0,1,.69-1.65L6.35,7.88,7.89,6.34,9.26,7.71A5.1,5.1,0,0,1,10.91,7V5.09h2.18V7a5.1,5.1,0,0,1,1.65.68l1.37-1.37,1.54,1.54L16.28,9.26A4.9,4.9,0,0,1,17,10.91h1.94Z" transform="translate(-3.99 -3.99)"/></svg>