<svg id="Layer_1" data-name="Layer 1" xmlns="http://www.w3.org/2000/svg" viewBox="0 0 15.37 16.88"><defs><style>.cls-1{fill:none;}.cls-1,.cls-2{stroke:#000;}.cls-2{stroke-width:0.2px;}</style></defs><title>happy-face</title><path class="cls-1" d="M10.84,4.19,5.33,7.35a1.83,1.83,0,0,0-.84,1.43v6.31a1.85,1.85,0,0,0,.84,1.44l2.44,1.39,3.07,1.76a1.91,1.91,0,0,0,1.68,0L18,16.53a1.84,1.84,0,0,0,.83-1.44V8.78A1.82,1.82,0,0,0,18,7.35L12.52,4.19a1.86,1.86,0,0,0-1.68,0Z" transform="translate(-3.99 -3.49)"/><path class="cls-1" d="M7.18,13.29a4.62,4.62,0,0,0,4.47,3.18,4.55,4.55,0,0,0,4.44-3.18l.08-.29H7.1Z" transform="translate(-3.99 -3.49)"/><path class="cls-2" d="M10.13,10a.26.26,0,0,0-.06-.3L8.29,8l-.42.39L9.14,9.58H7v.55H9.86A.3.3,0,0,0,10.13,10Zm3.47.17h2.86V9.58H14.31l1.28-1.19L15.17,8,13.39,9.66a.26.26,0,0,0-.07.3A.32.32,0,0,0,13.6,10.13Z" transform="translate(-3.99 -3.49)"/></svg>