<svg id="Layer_1" data-name="Layer 1" xmlns="http://www.w3.org/2000/svg" viewBox="0 0 15.63 17.33"><defs><style>.cls-1{fill:none;stroke:#000;stroke-width:1.5px;}.cls-2,.cls-3{isolation:isolate;}.cls-3{font-size:12px;font-family:FredokaOne-Regular, Fredoka One;}</style></defs><title>info</title><path class="cls-1" d="M11.18,4.19,5.76,7.33a1.86,1.86,0,0,0-.82,1.44v6.28a1.82,1.82,0,0,0,.82,1.43l2.4,1.39,3,1.76a1.82,1.82,0,0,0,1.64,0l5.42-3.15a1.82,1.82,0,0,0,.82-1.43V8.77a1.86,1.86,0,0,0-.82-1.44L12.82,4.19a1.78,1.78,0,0,0-1.64,0Z" transform="translate(-4.19 -3.24)"/><g class="cls-2"><text class="cls-3" transform="translate(6.34 13.69)">i</text></g></svg>