<svg id="Layer_1" data-name="Layer 1" xmlns="http://www.w3.org/2000/svg" viewBox="0 0 15.63 17.33"><defs><style>.cls-1{fill:none;stroke:#000;stroke-width:1.5px;}</style></defs><title>link</title><path class="cls-1" d="M11.27,4.19,5.85,7.33A1.86,1.86,0,0,0,5,8.77v6.28a1.82,1.82,0,0,0,.82,1.43l2.4,1.39,3,1.76a1.84,1.84,0,0,0,1.65,0l5.41-3.15a1.81,1.81,0,0,0,.83-1.43V8.77a1.84,1.84,0,0,0-.83-1.44L12.92,4.19A1.84,1.84,0,0,0,12.1,4,1.82,1.82,0,0,0,11.27,4.19Z" transform="translate(-4.28 -3.24)"/><path d="M16.33,12a4.19,4.19,0,0,1-4.18,4.18H10.09A1.2,1.2,0,0,1,8.8,14.84V9.05a1.28,1.28,0,0,1,1.28-1.29v5.79c0,1.22.2,1.29,1.28,1.29h.78a2.9,2.9,0,0,0,0-5.79H11a1.25,1.25,0,0,1,1.11-1.29A4.2,4.2,0,0,1,16.33,12Z" transform="translate(-4.28 -3.24)"/></svg>