<svg id="Layer_1" data-name="Layer 1" xmlns="http://www.w3.org/2000/svg" viewBox="0 0 12.61 15.1"><defs><style>.cls-1{fill:#121212;}.cls-2{fill:none;stroke:#000;stroke-width:0.8px;}</style></defs><title>loading</title><path class="cls-1" d="M17.43,11.93l-1.33.43a4.55,4.55,0,0,1-2.79,5.58,4,4,0,0,1-4.82-2.09L10.13,15a.42.42,0,0,0-.24-.53L7,13.38a.4.4,0,0,0-.5.26l-1,3.16a.41.41,0,0,0,.25.52l1.53-.81a5.41,5.41,0,0,0,6.47,2.86,6.06,6.06,0,0,0,3.72-7.44M7.06,11.79A4.52,4.52,0,0,1,9.94,6.21a4.22,4.22,0,0,1,5,2.09l-1.69.86a.42.42,0,0,0,.25.53l3,1.08A.41.41,0,0,0,17,10.5l1-3.15a.42.42,0,0,0-.25-.53l-1.58.82A5.63,5.63,0,0,0,9.53,4.78a6,6,0,0,0-3.84,7.44l1.37-.43" transform="translate(-5.44 -4.53)"/><path class="cls-2" d="M10.34,10.1,9.27,11.63a.53.53,0,0,0,0,.49l.79,1.7a.55.55,0,0,0,.41.28l.82.08,1,.09a.55.55,0,0,0,.44-.21l1.07-1.53a.53.53,0,0,0,0-.49l-.79-1.7a.55.55,0,0,0-.4-.28l-1.86-.17a.45.45,0,0,0-.25,0A.53.53,0,0,0,10.34,10.1Z" transform="translate(-5.44 -4.53)"/></svg>