<svg id="Layer_1" data-name="Layer 1" xmlns="http://www.w3.org/2000/svg" viewBox="0 0 14.88 16.01"><defs><style>.cls-1{fill:#121212;}.cls-2{fill:#fff;}</style></defs><title>lock</title><path class="cls-1" d="M11.86,5.52A2.42,2.42,0,0,1,14.3,7.93a3.42,3.42,0,0,1,0,.44c-.54-.06-2.82-.11-3-.11,0,0-1.24.05-1.77.11a2.25,2.25,0,0,1,0-.44A2.42,2.42,0,0,1,11.86,5.52ZM16,8.88c0-.14.07-.61.07-.73a4.24,4.24,0,0,0-8.44-.43,3,3,0,0,0,0,.43c0,.12,0,.59.06.7s-1.06.3-1.06.33a3.33,3.33,0,0,0-2.21,3.14v4.74a3,3,0,0,0,3,3h8.92a3,3,0,0,0,3-3V12.32a3.33,3.33,0,0,0-2.21-3.14S16.09,8.9,16,8.88Z" transform="translate(-4.42 -3.99)"/><path class="cls-2" d="M14.61,14.53a2.86,2.86,0,0,1-2.85,2.85H10.35a.82.82,0,0,1-.88-.88V12.55a.89.89,0,0,1,.88-.88v3.95c0,.83.14.88.88.88h.53a2,2,0,0,0,0-3.95H11a.86.86,0,0,1,.76-.88A2.86,2.86,0,0,1,14.61,14.53Z" transform="translate(-4.42 -3.99)"/></svg>