<svg id="Layer_1" data-name="Layer 1" xmlns="http://www.w3.org/2000/svg" viewBox="0 0 15.63 17.33"><defs><style>.cls-1{fill:none;stroke:#000;stroke-width:1.5px;}.cls-2{fill:#121212;}</style></defs><title>menu</title><path class="cls-1" d="M11.18,4.19,5.76,7.33a1.86,1.86,0,0,0-.82,1.44v6.28a1.82,1.82,0,0,0,.82,1.43l2.4,1.39,3,1.76a1.82,1.82,0,0,0,1.64,0l5.42-3.15a1.82,1.82,0,0,0,.82-1.43V8.77a1.86,1.86,0,0,0-.82-1.44L12.82,4.19a1.78,1.78,0,0,0-1.64,0Z" transform="translate(-4.19 -3.24)"/><path class="cls-2" d="M14.86,11.19H9A1.25,1.25,0,1,1,9,8.7h5.84a1.25,1.25,0,1,1,0,2.49m0,3.77H9a1.25,1.25,0,1,1,0-2.49h5.84a1.25,1.25,0,1,1,0,2.49" transform="translate(-4.19 -3.24)"/></svg>