<svg id="Layer_1" data-name="Layer 1" xmlns="http://www.w3.org/2000/svg" viewBox="0 0 15.08 16.11"><defs><style>.cls-1{fill:none;stroke:#000;stroke-width:0.5px;}.cls-2{fill:#fff;}</style></defs><title>network</title><path class="cls-1" d="M7.64,4.09,5,5.58a.89.89,0,0,0-.4.69v3a.88.88,0,0,0,.4.68l1.16.66,1.46.84a.93.93,0,0,0,.8,0l2.62-1.5a.88.88,0,0,0,.4-.68v-3a.89.89,0,0,0-.4-.69L8.44,4.09A1,1,0,0,0,8,4,1,1,0,0,0,7.64,4.09Zm7.74,0L12.75,5.58a.91.91,0,0,0-.39.69v3a.89.89,0,0,0,.39.68l1.17.66,1.46.84a.91.91,0,0,0,.79,0l2.63-1.5a.88.88,0,0,0,.4-.68v-3a.89.89,0,0,0-.4-.69L16.17,4.09a.93.93,0,0,0-.39-.1A1,1,0,0,0,15.38,4.09Z" transform="translate(-4.37 -3.74)"/><path d="M11.36,10.34,8.05,12.25a1.15,1.15,0,0,0-.5.88V17a1.13,1.13,0,0,0,.5.87l1.47.85,1.84,1.07a1.12,1.12,0,0,0,1,0l3.3-1.92a1.1,1.1,0,0,0,.5-.87V13.13a1.12,1.12,0,0,0-.5-.88l-3.3-1.91a1,1,0,0,0-.5-.12A1,1,0,0,0,11.36,10.34Z" transform="translate(-4.37 -3.74)"/><path class="cls-2" d="M14.73,15.05A2.77,2.77,0,0,1,12,17.83H10.64A.79.79,0,0,1,9.8,17V13.12a.84.84,0,0,1,.84-.85v3.85c0,.8.13.85.84.85H12a1.93,1.93,0,0,0,0-3.85h-.73a.83.83,0,0,1,.73-.85A2.77,2.77,0,0,1,14.73,15.05Z" transform="translate(-4.37 -3.74)"/></svg>