<svg id="Layer_1" data-name="Layer 1" xmlns="http://www.w3.org/2000/svg" viewBox="0 0 33.37 25.28"><defs><style>.cls-1{fill:none;stroke:#000;stroke-width:1.5px;}.cls-2{fill:#fff;}.cls-3,.cls-4{isolation:isolate;}.cls-4{font-size:13px;font-family:FredokaOne-Regular, Fredoka One;}</style></defs><title>new-dpack</title><path class="cls-1" d="M11.22,5.07,6.11,8a1.72,1.72,0,0,0-.78,1.35v5.94a1.74,1.74,0,0,0,.78,1.35L8.37,18l2.85,1.66a1.78,1.78,0,0,0,1.56,0l5.11-3a1.74,1.74,0,0,0,.78-1.35V9.39A1.72,1.72,0,0,0,17.89,8l-5.11-3A1.72,1.72,0,0,0,12,4.88,1.8,1.8,0,0,0,11.22,5.07Z" transform="translate(-4.58 4.16)"/><rect class="cls-2" x="11.82" y="4.88" width="6.59" height="3.5" transform="translate(1.41 -2.96) rotate(32.77)"/><g class="cls-3"><text class="cls-4" transform="translate(8.06 13.35)">+</text><text x="-4.58" y="4.16"></text><text x="-4.58" y="4.16"></text><text x="-4.58" y="4.16"></text><text x="-4.58" y="4.16"></text></g><path d="M17,12.36a5,5,0,0,1-5,5H9.42a1.44,1.44,0,0,1-1.55-1.53V8.92A1.53,1.53,0,0,1,9.42,7.4v6.87c0,1.43.24,1.52,1.55,1.52h.93a3.44,3.44,0,1,0,0-6.87H10.57A1.49,1.49,0,0,1,11.9,7.4,5,5,0,0,1,17,12.36Z" transform="translate(-4.58 4.16)"/></svg>