<svg id="Layer_1" data-name="Layer 1" xmlns="http://www.w3.org/2000/svg" viewBox="0 0 14.95 21.47"><defs><style>.cls-1{fill:none;stroke:#000;stroke-width:1.5px;}.cls-2,.cls-3{isolation:isolate;}.cls-3{font-size:13px;font-family:FredokaOne-Regular, Fredoka One;}</style></defs><title>new-dpack</title><path class="cls-1" d="M11.22,5.07,6.11,8a1.72,1.72,0,0,0-.78,1.35v5.94a1.74,1.74,0,0,0,.78,1.35L8.37,18l2.85,1.66a1.78,1.78,0,0,0,1.56,0l5.11-3a1.74,1.74,0,0,0,.78-1.35V9.39A1.72,1.72,0,0,0,17.89,8l-5.11-3A1.72,1.72,0,0,0,12,4.88,1.8,1.8,0,0,0,11.22,5.07Z" transform="translate(-4.58 0.89)"/><g class="cls-2"><text class="cls-3" transform="translate(8.1 11.26)">+</text></g><path d="M16.11,12.39a4,4,0,0,1-3.95,4H10.22A1.14,1.14,0,0,1,9,15.13V9.66a1.22,1.22,0,0,1,1.21-1.22v5.47c0,1.15.18,1.22,1.21,1.22h.73a2.74,2.74,0,1,0,0-5.47h-1a1.18,1.18,0,0,1,1-1.22A4,4,0,0,1,16.11,12.39Z" transform="translate(-4.58 0.89)"/></svg>