<svg id="Layer_1" data-name="Layer 1" xmlns="http://www.w3.org/2000/svg" viewBox="0 0 22.28 16.83"><defs><style>.cls-1{fill:#121212;}.cls-2{font-size:10.83px;font-family:FredokaOne-Regular, Fredoka One;}.cls-3{fill:#fff;}</style></defs><title>new-dpack</title><path class="cls-1" d="M21,17.16a4,4,0,0,1-1.35,1.1l-.06,0-.31.14-.12,0-.3.08-.13,0-.3.05-.13,0c-.14,0-.29,0-.44,0a3.87,3.87,0,0,1-3.94-3.79,3.87,3.87,0,0,1,3.94-3.78,3.71,3.71,0,0,1,.47,0h.13l.33.07.13,0a1.9,1.9,0,0,1,.36.12l.07,0,.39.18.05,0c.13.07.25.15.37.23l.05,0a4.47,4.47,0,0,1,.35.29,3.87,3.87,0,0,1,.62.72,3.68,3.68,0,0,1,.61,2A3.64,3.64,0,0,1,21,17.16Zm-5,2.5h0S16,19.67,16,19.66Zm6.31-7.49a5.09,5.09,0,0,0-.84-1,4.94,4.94,0,0,0-.44-.36L21,10.78a4,4,0,0,0-.47-.29l-.05,0a5.94,5.94,0,0,0-.57-.27l-.08,0L19.29,10l-.18,0c-.14,0,.13-.24-1.94-.51H10.39V8.73c-.06-1.26-.16-2.33-1.15-2.33h0L3,6.07c0-.62.2-.78.77-.78h0l6.47.06h0a2,2,0,0,1,1.74,2v.61h4.78c1.16,0,1.84.79,2.17,2l.15,0,.17.05a4.16,4.16,0,0,1,.5.16l.08,0a4.31,4.31,0,0,1,.49.22V7.31c0-2.09.09-3.77-1.93-3.77H3.8c-1.46,0-1.75.88-1.81,2.15H1.78c-1,0-.92,1-.92,2V16c0,2.19.73,4,2.85,4H17.15l.33,0a5.12,5.12,0,0,1-1.18-.21,5.87,5.87,0,0,0,1.56.21,5.68,5.68,0,0,0,.59,0l.18,0,.41-.07.17-.05.4-.11.15-.06.45-.18.07,0a5.47,5.47,0,0,0,1.8-1.47,4.9,4.9,0,0,0,.23-5.77Z" transform="translate(-0.86 -3.54)"/><text class="cls-2" transform="translate(14.42 14.27) scale(1.01 1)">+</text><path class="cls-3" d="M10.57,14.23a5,5,0,0,1-4.89,5.08H3.27a1.44,1.44,0,0,1-1.51-1.56v-7A1.54,1.54,0,0,1,3.27,9.14v7c0,1.47.23,1.57,1.51,1.57h.9a3.52,3.52,0,0,0,0-7H4.38a1.51,1.51,0,0,1,1.3-1.57A5,5,0,0,1,10.57,14.23Z" transform="translate(-0.86 -3.54)"/></svg>