<svg id="Layer_1" data-name="Layer 1" xmlns="http://www.w3.org/2000/svg" viewBox="0 0 16.01 12.56"><defs><style>.cls-1{fill:none;stroke:#000;stroke-width:0.4px;}</style></defs><title>open-in-desktop</title><path d="M6.07,16.45H17.93a1.25,1.25,0,0,0,1.19-1.28V7.05a1.25,1.25,0,0,0-1.19-1.28H6.07A1.25,1.25,0,0,0,4.88,7.05v8.12A1.25,1.25,0,0,0,6.07,16.45Zm0-9.4H17.93v8.12H6.07Z" transform="translate(-3.99 -5.77)"/><rect y="11.56" width="16.01" height="1"/><path class="cls-1" d="M12,8.51,10.14,9.57a.61.61,0,0,0-.27.48v2.12a.61.61,0,0,0,.27.48l.81.47,1,.59a.59.59,0,0,0,.55,0l1.83-1.06a.62.62,0,0,0,.28-.48V10.05a.62.62,0,0,0-.28-.48L12.52,8.51a.47.47,0,0,0-.27-.07A.53.53,0,0,0,12,8.51Z" transform="translate(-3.99 -5.77)"/></svg>