<svg id="Layer_1" data-name="Layer 1" xmlns="http://www.w3.org/2000/svg" viewBox="0 0 16.01 16.01"><defs><style>.cls-1{fill:#1a171b;}.cls-2{fill:none;stroke:#000;}</style></defs><title>open-in-finder</title><path class="cls-1" d="M9.17,17A6.85,6.85,0,0,1,8,16.48a.32.32,0,0,0-.36.06.17.17,0,0,0,.08.27A7.51,7.51,0,0,0,9,17.32l.09,0a.27.27,0,0,0,.24-.13A.2.2,0,0,0,9.17,17ZM5.8,14.66a6.24,6.24,0,0,1-1.3-3.83A6.46,6.46,0,0,1,13.43,5a.26.26,0,0,0,.33-.13.25.25,0,0,0-.13-.32A7,7,0,0,0,4,10.83,6.72,6.72,0,0,0,5.4,15a5.59,5.59,0,0,0,.45.52.24.24,0,0,0,.35,0,.24.24,0,0,0,0-.35C6.07,15,5.93,14.83,5.8,14.66Z" transform="translate(-3.99 -3.99)"/><path class="cls-1" d="M19.51,17.2a.25.25,0,1,0-.36.35,1.12,1.12,0,0,1,0,1.62,1.22,1.22,0,0,1-1.65,0l-1.76-1.73a7,7,0,0,0,1.65-1.61l.83.81a.25.25,0,0,0,.36,0,.24.24,0,0,0,0-.35l-1-1a.25.25,0,0,0-.2-.07.27.27,0,0,0-.19.11,1.34,1.34,0,0,1-.11.14l-1-1a6.8,6.8,0,0,0-1.5-9.52.26.26,0,0,0-.36,0,.25.25,0,0,0,.05.35,6.34,6.34,0,0,1,2.61,5.13,6.5,6.5,0,0,1-6.56,6.43q-.33,0-.66,0a.26.26,0,0,0-.28.23.25.25,0,0,0,.23.27c.23,0,.47,0,.71,0a7.15,7.15,0,0,0,4.08-1.27l1,1-.14.1a.22.22,0,0,0-.11.18.25.25,0,0,0,.07.2l2,1.94a1.71,1.71,0,0,0,1.19.49,1.66,1.66,0,0,0,1.18-.49A1.61,1.61,0,0,0,19.51,17.2Zm-4.75-1.39a7.82,7.82,0,0,0,1-.94l1,1a6.23,6.23,0,0,1-1,1Z" transform="translate(-3.99 -3.99)"/><path class="cls-2" d="M10.2,6.28,7.13,8.06a1,1,0,0,0-.47.81v3.56a1,1,0,0,0,.47.81L8.49,14l1.71,1a1,1,0,0,0,.93,0l3.07-1.78a1,1,0,0,0,.47-.81V8.87a1,1,0,0,0-.47-.81L11.13,6.28a.87.87,0,0,0-.46-.11A.91.91,0,0,0,10.2,6.28Z" transform="translate(-3.99 -3.99)"/></svg>