<svg id="Layer_1" data-name="Layer 1" xmlns="http://www.w3.org/2000/svg" viewBox="0 0 15.36 17.01"><defs><style>.cls-1,.cls-2{stroke:#000;}.cls-1{stroke-width:0.2px;}.cls-2{fill:none;}</style></defs><title>sad-face</title><path class="cls-1" d="M15.2,14.61a.21.21,0,0,1-.18-.09,4.18,4.18,0,0,0-3-1,4.18,4.18,0,0,0-3.05,1,.24.24,0,0,1-.34,0,.25.25,0,0,1,0-.34A4.56,4.56,0,0,1,12,13a4.56,4.56,0,0,1,3.42,1.22.25.25,0,0,1,0,.34A.3.3,0,0,1,15.2,14.61ZM12.9,9.74l1.53-1.32a.25.25,0,0,0,0-.34.24.24,0,0,0-.34,0L12.58,9.37a.24.24,0,0,0,0,.34.23.23,0,0,0,.18.09A.25.25,0,0,0,12.9,9.74ZM9.5,11.28c0,.7.28,1.28.62,1.28s.63-.58.63-1.28S10.47,10,10.12,10,9.5,10.57,9.5,11.28Zm4,0c0,.7.28,1.28.62,1.28s.63-.58.63-1.28S14.47,10,14.12,10,13.5,10.57,13.5,11.28Zm-3-1.49a.24.24,0,0,0,0-.34L8.9,8.06a.24.24,0,0,0-.32.36l1.61,1.39a.23.23,0,0,0,.16.06A.27.27,0,0,0,10.53,9.79Z" transform="translate(-3.99 -3.49)"/><path class="cls-2" d="M10.84,4.19,5.33,7.37a1.87,1.87,0,0,0-.84,1.45v6.36a1.87,1.87,0,0,0,.84,1.45L7.77,18l3.07,1.78a1.89,1.89,0,0,0,1.67,0L18,16.63a1.87,1.87,0,0,0,.84-1.45V8.82A1.87,1.87,0,0,0,18,7.37l-5.5-3.18a1.84,1.84,0,0,0-1.67,0Z" transform="translate(-3.99 -3.49)"/></svg>